<?xml version="1.0" encoding="UTF-8"?>
<svg version="1.1" xmlns="http://www.w3.org/2000/svg" width="502" height="304">
<path d="M0 0 C165.66 0 331.32 0 502 0 C502 100.32 502 200.64 502 304 C336.34 304 170.68 304 0 304 C0 203.68 0 103.36 0 0 Z " fill="#F6F6F6" transform="translate(0,0)"/>
<path d="M0 0 C14.18758541 6.14935285 26.13826631 14.42444359 32.3125 29.125 C34.23561098 39.96435282 33.71290842 51.90091054 29 62 C26.69 62 24.38 62 22 62 C22.26136553 60.64397415 22.53472143 59.29025908 22.8125 57.9375 C22.96332031 57.18339844 23.11414063 56.42929688 23.26953125 55.65234375 C24 53 24 53 25.546875 49.68359375 C27.11319358 45.71306035 27.50130315 42.32942516 27.4375 38.125 C27.42992676 37.42318604 27.42235352 36.72137207 27.41455078 35.99829102 C27.11531112 26.55258375 23.41274733 20.6478814 17 14 C16.34 14.33 15.68 14.66 15 15 C14.36198164 17.5315866 13.83312632 19.99839502 13.375 22.5625 C13.2409375 23.27341797 13.106875 23.98433594 12.96875 24.71679688 C12.63808153 26.47642553 12.31804233 28.23804548 12 30 C11.34 30 10.68 30 10 30 C9.7834375 31.1446875 9.7834375 31.1446875 9.5625 32.3125 C9 35 9 35 8 38 C5.69 38 3.38 38 1 38 C1.66 37.01 2.32 36.02 3 35 C3 33.68 3 32.36 3 31 C4.32 30.67 5.64 30.34 7 30 C8.2039337 26.24600202 8.09877617 22.66782588 8.0625 18.75 C8.05347656 17.48671875 8.04445313 16.2234375 8.03515625 14.921875 C8.02355469 13.95765625 8.01195312 12.9934375 8 12 C8.66 12 9.32 12 10 12 C10 12.66 10 13.32 10 14 C10.66 14 11.32 14 12 14 C12.41806075 11.64017275 12.41806075 11.64017275 12 9 C9.8175867 7.08456339 9.8175867 7.08456339 7 5.6875 C6.071875 5.17574219 5.14375 4.66398438 4.1875 4.13671875 C3.1046875 3.57404297 3.1046875 3.57404297 2 3 C1.98582031 4.00417969 1.97164063 5.00835937 1.95703125 6.04296875 C1.61744247 17.70504937 -0.2892404 27.79124007 -8 37 C-8.70885894 38.31138904 -9.39456452 39.63777017 -10 41 C-9.34 41 -8.68 41 -8 41 C-7.67 41.99 -7.34 42.98 -7 44 C-6.319375 43.34 -5.63875 42.68 -4.9375 42 C-1.35542625 39.56114128 0.75519536 39.66707415 5 40 C4.59007812 40.45890625 4.18015625 40.9178125 3.7578125 41.390625 C3.21898437 42.00421875 2.68015625 42.6178125 2.125 43.25 C1.59132813 43.85328125 1.05765625 44.4565625 0.5078125 45.078125 C-1.06912392 46.95230477 -1.06912392 46.95230477 -2.0703125 49.171875 C-3 51 -3 51 -5 52 C-5.66 52.99 -6.32 53.98 -7 55 C-8.051875 55.1546875 -8.051875 55.1546875 -9.125 55.3125 C-12.30009472 56.07176178 -13.09032251 56.91133947 -15.4375 59.0625 C-20.94351153 63.50762299 -27.28274399 62.50945481 -34 62 C-29.82119515 58.6913579 -25.21723989 56.2273477 -20.58203125 53.62109375 C-17.91161258 52.25631733 -17.91161258 52.25631733 -17 50 C-17.495 48.7934375 -17.495 48.7934375 -18 47.5625 C-19 45 -19 45 -18 42 C-18.57049072 42.45938965 -19.14098145 42.9187793 -19.72875977 43.39208984 C-27.09288703 48.60547715 -37.44821434 50.45002259 -46 53 C-46.68026245 53.20379272 -47.3605249 53.40758545 -48.06140137 53.61755371 C-71.692013 60.63927546 -93.37135938 63.33963317 -118 62 C-118 61.67 -118 61.34 -118 61 C-116.78940918 60.76812988 -115.57881836 60.53625977 -114.33154297 60.29736328 C-109.8244005 59.43297281 -105.31830477 58.56322875 -100.8125 57.69189453 C-98.86518882 57.31609196 -96.91759976 56.94172624 -94.96972656 56.56884766 C-92.16396328 56.03148237 -89.35925216 55.48889447 -86.5546875 54.9453125 C-85.68883026 54.78064484 -84.82297302 54.61597717 -83.93087769 54.44631958 C-79.48088109 53.57836731 -75.28825785 52.50232445 -71 51 C-68.4578978 50.52301119 -65.92837314 50.08882607 -63.375 49.6875 C-30.94812602 44.21357745 -30.94812602 44.21357745 -5.625 24.875 C-2.48829218 19.32544002 -1.51527279 14.44852818 -0.875 8.1875 C-0.74544922 7.00510742 -0.74544922 7.00510742 -0.61328125 5.79882812 C-0.40248936 3.86656916 -0.20037104 1.93336737 0 0 Z " fill="#555A71" transform="translate(386,133)"/>
<path d="M0 0 C2.53193757 0.27359086 2.53193757 0.27359086 5.3828125 -0.87890625 C7.61099691 -0.94827687 9.84115774 -0.96347709 12.0703125 -0.94140625 C13.83955078 -0.92787109 13.83955078 -0.92787109 15.64453125 -0.9140625 C16.54816406 -0.90246094 17.45179688 -0.89085937 18.3828125 -0.87890625 C17.3928125 -0.21890625 16.4028125 0.44109375 15.3828125 1.12109375 C14.87096605 4.12523944 14.87096605 4.12523944 14.87109375 7.66015625 C14.83564453 8.96210938 14.80019531 10.2640625 14.76367188 11.60546875 C14.74057019 12.98567184 14.71778786 14.36588032 14.6953125 15.74609375 C14.66214805 17.13414727 14.6276592 18.52216982 14.59179688 19.91015625 C14.50907135 23.31372082 14.43999993 26.71701965 14.3828125 30.12109375 C16.32103846 30.08803873 18.25866918 30.0185947 20.1953125 29.93359375 C21.27425781 29.89878906 22.35320312 29.86398438 23.46484375 29.828125 C26.60184407 29.41725773 26.60184407 29.41725773 28.08203125 26.5703125 C28.51128906 25.76207031 28.94054687 24.95382813 29.3828125 24.12109375 C30.3728125 24.12109375 31.3628125 24.12109375 32.3828125 24.12109375 C30.5078125 29.87109375 30.5078125 29.87109375 29.3828125 32.12109375 C25.07032641 32.14995912 20.75786488 32.1678463 16.4453125 32.18359375 C15.21361328 32.19197266 13.98191406 32.20035156 12.71289062 32.20898438 C11.54306641 32.21220703 10.37324219 32.21542969 9.16796875 32.21875 C7.54193726 32.22660522 7.54193726 32.22660522 5.88305664 32.23461914 C3.3828125 32.12109375 3.3828125 32.12109375 2.3828125 31.12109375 C0.71233535 31.21356659 -0.95464052 31.37155721 -2.6171875 31.55859375 C-19.31506997 33.15709738 -19.31506997 33.15709738 -25.6171875 28.12109375 C-29.42657769 23.46398012 -30.26632221 18.34905333 -30.00390625 12.44921875 C-29.20652416 7.64881747 -26.55132563 4.96409645 -23.0546875 1.80859375 C-16.37612331 -2.81502761 -7.6407684 -0.88162712 0 0 Z " fill="#EEEFF1" transform="translate(189.6171875,133.87890625)"/>
<path d="M0 0 C0.66 0.33 1.32 0.66 2 1 C2.4140625 3.06640625 2.4140625 3.06640625 2.625 5.5625 C2.69976562 6.38878906 2.77453125 7.21507813 2.8515625 8.06640625 C2.90054687 8.70449219 2.94953125 9.34257813 3 10 C5.86293173 8.69645236 7.32807153 7.67192847 9.625 5.375 C10.40875 4.59125 11.1925 3.8075 12 3 C12.66 3 13.32 3 14 3 C13.49547781 6.74787912 12.91840767 10.32636934 12 14 C15.3 13.67 18.6 13.34 22 13 C20 17 20 17 17 19 C16.505 20.485 16.505 20.485 16 22 C16.71027344 22.12117188 17.42054688 22.24234375 18.15234375 22.3671875 C19.07144531 22.53476563 19.99054688 22.70234375 20.9375 22.875 C22.31228516 23.11863281 22.31228516 23.11863281 23.71484375 23.3671875 C24.46894531 23.57601562 25.22304688 23.78484375 26 24 C26.495 24.99 26.495 24.99 27 26 C23.37 26.66 19.74 27.32 16 28 C16.969375 29.27875 17.93875 30.5575 18.9375 31.875 C21.875 35.75 21.875 35.75 23 38 C19.37 37.34 15.74 36.68 12 36 C12.66 39.96 13.32 43.92 14 48 C11.98177083 46.47005208 9.96354167 44.94010417 7.9453125 43.41015625 C6.05642921 41.96035376 6.05642921 41.96035376 4 41 C4 42.32 4 43.64 4 45 C3.34 45 2.68 45 2 45 C1.67 46.32 1.34 47.64 1 49 C-1.89932357 46.60490662 -2.50168276 44.68754757 -3 41 C-5.53283204 42.01313282 -6.75491604 42.50983207 -8 45 C-9 47 -9 47 -13 49 C-12.34 45.04 -11.68 41.08 -11 37 C-12.485 37.495 -12.485 37.495 -14 38 C-15.39439664 38.06665376 -16.79169875 38.08538199 -18.1875 38.0625 C-19.445625 38.041875 -20.70375 38.02125 -22 38 C-21.566875 37.44570312 -21.13375 36.89140625 -20.6875 36.3203125 C-20.130625 35.59585938 -19.57375 34.87140625 -19 34.125 C-18.443125 33.40570313 -17.88625 32.68640625 -17.3125 31.9453125 C-15.81356623 30.1147915 -15.81356623 30.1147915 -16 28 C-19.3 27.34 -22.6 26.68 -26 26 C-23.6870518 23.6870518 -22.52095125 23.50419025 -19.375 22.875 C-18.55773437 22.70742187 -17.74046875 22.53984375 -16.8984375 22.3671875 C-16.27195312 22.24601562 -15.64546875 22.12484375 -15 22 C-16.93856562 18.4136536 -18.7224587 16.37339198 -22 14 C-22 13.34 -22 12.68 -22 12 C-16.06 12.99 -16.06 12.99 -10 14 C-10.66 12.35 -11.32 10.7 -12 9 C-12.125 6.1875 -12.125 6.1875 -12 4 C-8.05860922 5.66751148 -5.2107188 8.22710649 -2 11 C-2.04125 10.113125 -2.0825 9.22625 -2.125 8.3125 C-2.00102754 5.02722987 -1.38612096 2.94550705 0 0 Z " fill="#F5B830" transform="translate(354,115)"/>
<path d="M0 0 C3.02138567 -0.08149592 6.04053905 -0.14073421 9.0625 -0.1875 C9.91005859 -0.21263672 10.75761719 -0.23777344 11.63085938 -0.26367188 C17.85939786 -0.33581711 22.87802859 0.24902519 27.7421875 4.53515625 C31.8303418 10.04711602 32.60140557 13.21748161 32 20 C30.23771748 25.87427505 27.90286067 28.59801504 23 32 C20.10600775 32.95095726 17.4875522 33.11815914 14.453125 33.09765625 C13.60878906 33.09443359 12.76445312 33.09121094 11.89453125 33.08789062 C10.58548828 33.07532227 10.58548828 33.07532227 9.25 33.0625 C7.91775391 33.05573242 7.91775391 33.05573242 6.55859375 33.04882812 C4.37232671 33.037074 2.18619821 33.02064249 0 33 C0.66 32.34 1.32 31.68 2 31 C2.37296556 27.99027343 2.37296556 27.99027343 2.4140625 24.4609375 C2.45273438 23.15898437 2.49140625 21.85703125 2.53125 20.515625 C2.56270763 19.13542138 2.59395491 17.75521296 2.625 16.375 C2.66317934 14.98695459 2.70223105 13.59893289 2.7421875 12.2109375 C2.83672943 8.80742815 2.92227897 5.40392835 3 2 C2.01 1.67 1.02 1.34 0 1 C0 0.67 0 0.34 0 0 Z " fill="#F0F1F3" transform="translate(241,133)"/>
<path d="M0 0 C3.04317386 -0.13558695 6.08025562 -0.23437239 9.125 -0.3125 C10.40890625 -0.3753418 10.40890625 -0.3753418 11.71875 -0.43945312 C16.04897179 -0.52272662 19.06791387 -0.44857839 22.546875 2.3046875 C25.61681225 5.67770773 26.15941977 7.45653653 26 12 C24.02061533 15.74669241 22.52983947 17.64677369 19 20 C15.8125 20.125 15.8125 20.125 13 20 C13.598125 19.7525 14.19625 19.505 14.8125 19.25 C17.47957184 17.72595895 18.56182071 16.73254065 20 14 C20.41909372 11.14563196 20.28369801 8.93154613 20 6 C16.61430493 3.43126321 16.61430493 3.43126321 10 3 C10 12.24 10 21.48 10 31 C11.65 31.33 13.3 31.66 15 32 C15 32.66 15 33.32 15 34 C14.15695313 34.13277344 13.31390625 34.26554687 12.4453125 34.40234375 C11.34960938 34.57894531 10.25390625 34.75554687 9.125 34.9375 C8.03445312 35.11152344 6.94390625 35.28554687 5.8203125 35.46484375 C3.06178454 35.85551159 3.06178454 35.85551159 1 37 C-0.875 36.625 -0.875 36.625 -3 36 C-6.62562066 34.99982878 -10.27501819 34.50143986 -14 34 C-13.01 33.34 -12.02 32.68 -11 32 C-10.53215787 29.0267756 -10.53215787 29.0267756 -10.6015625 25.53125 C-10.59769531 24.23832031 -10.59382813 22.94539063 -10.58984375 21.61328125 C-10.59612793 20.93861816 -10.60241211 20.26395508 -10.60888672 19.56884766 C-10.62494187 17.50746417 -10.60904403 15.4480411 -10.58984375 13.38671875 C-10.59371094 12.09378906 -10.59757812 10.80085937 -10.6015625 9.46875 C-10.60494629 8.27701172 -10.60833008 7.08527344 -10.61181641 5.85742188 C-10.73991699 4.91447266 -10.86801758 3.97152344 -11 3 C-11.99 2.34 -12.98 1.68 -14 1 C-12.04174127 0.97305149 -10.08337774 0.95362782 -8.125 0.9375 C-7.03445312 0.92589844 -5.94390625 0.91429687 -4.8203125 0.90234375 C-2 1 -2 1 0 2 C0 1.34 0 0.68 0 0 Z " fill="#EDEEF0" transform="translate(130,132)"/>
<path d="M0 0 C0.33 0.99 0.66 1.98 1 3 C0.34 3 -0.32 3 -1 3 C-0.67 2.01 -0.34 1.02 0 0 Z M2 0 C2.33 0 2.66 0 3 0 C3.20758929 6.37760436 3.19081008 11.91441644 1 18 C0.7525 18.804375 0.505 19.60875 0.25 20.4375 C-6.12362262 33.50342636 -17.89402937 39.29352264 -31 44 C-36.68883044 45.6673146 -42.05920035 47 -48 47 C-48 46.34 -48 45.68 -48 45 C-47.34 45 -46.68 45 -46 45 C-46.495 43.515 -46.495 43.515 -47 42 C-46.505 41.505 -46.505 41.505 -46 41 C-45.63239269 38.67182036 -45.29758419 36.3381615 -45 34 C-41.07699505 36.35380297 -40.16142685 38.64464931 -39 43 C-37.78918149 39.89459074 -37.78918149 39.89459074 -38 36 C-38.66 36 -39.32 36 -40 36 C-40 35.34 -40 34.68 -40 34 C-38.35 34 -36.7 34 -35 34 C-35 33.01 -35 32.02 -35 31 C-36.98 31 -38.96 31 -41 31 C-40.67 30.34 -40.34 29.68 -40 29 C-39.34 29 -38.68 29 -38 29 C-37.896875 28.401875 -37.79375 27.80375 -37.6875 27.1875 C-36.91123545 24.71756736 -35.92911079 23.67748765 -34 22 C-33.01 22.33 -32.02 22.66 -31 23 C-29.8125 26.5625 -29.8125 26.5625 -29 30 C-28.34 29.01 -27.68 28.02 -27 27 C-26.34 27 -25.68 27 -25 27 C-25 25.68 -25 24.36 -25 23 C-21.56404834 24.52708963 -18.88087546 26.59927045 -16 29 C-16.33 25.37 -16.66 21.74 -17 18 C-13.7 18.33 -10.4 18.66 -7 19 C-7.99 17.88625 -8.98 16.7725 -10 15.625 C-13 12.25 -13 12.25 -13 10 C-9.7 9.01 -6.4 8.02 -3 7 C-6.3 6.01 -9.6 5.02 -13 4 C-12.67 3.01 -12.34 2.02 -12 1 C-12 1.66 -12 2.32 -12 3 C-11.31292969 3.01417969 -10.62585938 3.02835938 -9.91796875 3.04296875 C-7.19339102 3.18718817 -4.6616416 3.39137986 -2 4 C0.125 6.5625 0.125 6.5625 1 9 C1.33 6.03 1.66 3.06 2 0 Z " fill="#F0F0EF" transform="translate(383,133)"/>
<path d="M0 0 C2.68860931 -0.10887507 5.37273158 -0.18770594 8.0625 -0.25 C8.81466797 -0.28351563 9.56683594 -0.31703125 10.34179688 -0.3515625 C16.05038375 -0.45041249 19.35963786 0.6159017 24 4 C25.1875 7.4375 25.1875 7.4375 25 11 C23.1875 13.9375 23.1875 13.9375 21 16 C20.34 16 19.68 16 19 16 C21.73126664 22.64433134 24.34955965 26.97669974 30.42578125 30.94140625 C30.94527344 31.29074219 31.46476562 31.64007813 32 32 C32 32.33 32 32.66 32 33 C26.2708203 32.65624922 22.84421015 31.19090285 19 27 C17.43393897 24.92623839 15.93181646 22.83538518 14.4921875 20.671875 C12.90475737 18.57790279 12.90475737 18.57790279 9 18 C9 22.29 9 26.58 9 31 C10.32 31.66 11.64 32.32 13 33 C8.71 33 4.42 33 0 33 C1.32 32.34 2.64 31.68 4 31 C4 21.43 4 11.86 4 2 C2.68 1.34 1.36 0.68 0 0 Z " fill="#565B73" transform="translate(82,133)"/>
<path d="M0 0 C0 0.66 0 1.32 0 2 C0.763125 2.268125 1.52625 2.53625 2.3125 2.8125 C6.52744887 4.67491927 6.52744887 4.67491927 8 7 C8.40962682 11.23281052 8.4477592 13.88060201 6.875 17.8125 C3.79968119 21.40037194 0.63542281 22.76150084 -4 23.4375 C-7.85762893 22.87492911 -9.97048355 21.40984263 -13 19 C-15.47497559 15.28753662 -15.65903459 12.30406538 -15 8 C-13.26102632 4.52205265 -11.99738866 2.57743554 -8.625 0.625 C-5.66845581 -0.07893909 -3.02878759 -0.14087384 0 0 Z " fill="#F6F6F6" transform="translate(358,128)"/>
<path d="M0 0 C3.02138567 -0.08149592 6.04053905 -0.14073421 9.0625 -0.1875 C9.91005859 -0.21263672 10.75761719 -0.23777344 11.63085938 -0.26367188 C17.85939786 -0.33581711 22.87802859 0.24902519 27.7421875 4.53515625 C31.8303418 10.04711602 32.60140557 13.21748161 32 20 C30.23771748 25.87427505 27.90286067 28.59801504 23 32 C20.10600775 32.95095726 17.4875522 33.11815914 14.453125 33.09765625 C13.60878906 33.09443359 12.76445312 33.09121094 11.89453125 33.08789062 C10.58548828 33.07532227 10.58548828 33.07532227 9.25 33.0625 C7.91775391 33.05573242 7.91775391 33.05573242 6.55859375 33.04882812 C4.37232671 33.037074 2.18619821 33.02064249 0 33 C0.66 32.34 1.32 31.68 2 31 C2.37296556 27.99027343 2.37296556 27.99027343 2.4140625 24.4609375 C2.45273438 23.15898437 2.49140625 21.85703125 2.53125 20.515625 C2.56270763 19.13542138 2.59395491 17.75521296 2.625 16.375 C2.66317934 14.98695459 2.70223105 13.59893289 2.7421875 12.2109375 C2.83672943 8.80742815 2.92227897 5.40392835 3 2 C2.01 1.67 1.02 1.34 0 1 C0 0.67 0 0.34 0 0 Z M8 3 C7.90016942 4.98757028 7.86919247 6.9786752 7.8671875 8.96875 C7.86589844 10.17917969 7.86460937 11.38960937 7.86328125 12.63671875 C7.86714844 13.91160156 7.87101563 15.18648437 7.875 16.5 C7.87113281 17.77488281 7.86726562 19.04976562 7.86328125 20.36328125 C7.86457031 21.57371094 7.86585938 22.78414062 7.8671875 24.03125 C7.86831543 25.15080078 7.86944336 26.27035156 7.87060547 27.42382812 C7.70783632 29.93141802 7.70783632 29.93141802 9 31 C13.53669097 31.43686654 17.68528372 31.53148105 21.9375 29.8125 C25.23397305 26.91559945 26.82580521 24.25388861 27.43359375 19.87890625 C27.55512044 11.08442551 27.55512044 11.08442551 23 4 C19.86702369 2.0461008 17.47717557 1.75295579 13.8125 1.8125 C12.93207031 1.81894531 12.05164063 1.82539063 11.14453125 1.83203125 C9.01852688 1.76489536 9.01852688 1.76489536 8 3 Z " fill="#595C6F" transform="translate(241,133)"/>
<path d="M0 0 C0.33 0.66 0.66 1.32 1 2 C0.57847656 2.62648437 0.15695312 3.25296875 -0.27734375 3.8984375 C-0.82519531 4.71570313 -1.37304688 5.53296875 -1.9375 6.375 C-2.75541016 7.59316406 -2.75541016 7.59316406 -3.58984375 8.8359375 C-5.01093879 10.92719184 -5.01093879 10.92719184 -6 13 C-5.34 13 -4.68 13 -4 13 C-3.67 13.99 -3.34 14.98 -3 16 C-2.319375 15.34 -1.63875 14.68 -0.9375 14 C2.64457375 11.56114128 4.75519536 11.66707415 9 12 C8.59007812 12.45890625 8.18015625 12.9178125 7.7578125 13.390625 C7.21898437 14.00421875 6.68015625 14.6178125 6.125 15.25 C5.59132813 15.85328125 5.05765625 16.4565625 4.5078125 17.078125 C2.93087608 18.95230477 2.93087608 18.95230477 1.9296875 21.171875 C1 23 1 23 -1 24 C-1.66 24.99 -2.32 25.98 -3 27 C-3.70125 27.103125 -4.4025 27.20625 -5.125 27.3125 C-8.30009472 28.07176178 -9.09032251 28.91133947 -11.4375 31.0625 C-16.94351153 35.50762299 -23.28274399 34.50945481 -30 34 C-25.82119515 30.6913579 -21.21723989 28.2273477 -16.58203125 25.62109375 C-13.91161258 24.25631733 -13.91161258 24.25631733 -13 22 C-13.33 21.21625 -13.66 20.4325 -14 19.625 C-15.12180409 16.68026427 -15.12980212 15.86624676 -14 13 C-12.36328125 11.54296875 -12.36328125 11.54296875 -10.3125 10.1875 C-6.17496027 7.27258462 -3.10379366 3.97379643 0 0 Z " fill="#EBEDEF" transform="translate(382,161)"/>
<path d="M0 0 C7.26 0 14.52 0 22 0 C22 0.99 22 1.98 22 3 C17.71 2.67 13.42 2.34 9 2 C9 6.29 9 10.58 9 15 C11.97 15 14.94 15 18 15 C18.33 13.68 18.66 12.36 19 11 C19.33 11 19.66 11 20 11 C20 14.3 20 17.6 20 21 C19.34 20.67 18.68 20.34 18 20 C18 19.34 18 18.68 18 18 C15.03 18 12.06 18 9 18 C9 22.29 9 26.58 9 31 C15.435 30.505 15.435 30.505 22 30 C22.66 28.35 23.32 26.7 24 25 C24.66 25 25.32 25 26 25 C25.47731534 27.76276177 24.89130413 30.3260876 24 33 C16.08 33 8.16 33 0 33 C1.32 32.34 2.64 31.68 4 31 C4 21.43 4 11.86 4 2 C2.68 1.67 1.36 1.34 0 1 C0 0.67 0 0.34 0 0 Z " fill="#5E6277" transform="translate(277,133)"/>
<path d="M0 0 C0.75 1.75 0.75 1.75 1 4 C-0.9375 6.25 -0.9375 6.25 -3 8 C-1.35 7.67 0.3 7.34 2 7 C2 5.68 2 4.36 2 3 C2.66 3 3.32 3 4 3 C4.33 2.34 4.66 1.68 5 1 C7.31 3.64 9.62 6.28 12 9 C7.74938644 10.41687119 5.28148375 9.19320039 1 8 C1.66 11.96 2.32 15.92 3 20 C0.98177083 18.47005208 -1.03645833 16.94010417 -3.0546875 15.41015625 C-4.94357079 13.96035376 -4.94357079 13.96035376 -7 13 C-7 14.32 -7 15.64 -7 17 C-7.66 17 -8.32 17 -9 17 C-9.33 18.32 -9.66 19.64 -10 21 C-12.89932357 18.60490662 -13.50168276 16.68754757 -14 13 C-16.53283204 14.01313282 -17.75491604 14.50983207 -19 17 C-20 19 -20 19 -24 21 C-23.34 17.04 -22.68 13.08 -22 9 C-22.99 9.33 -23.98 9.66 -25 10 C-26.39439664 10.06665376 -27.79169875 10.08538199 -29.1875 10.0625 C-31.0746875 10.0315625 -31.0746875 10.0315625 -33 10 C-31.68 8.68 -30.36 7.36 -29 6 C-29 6.66 -29 7.32 -29 8 C-24.545 7.505 -24.545 7.505 -20 7 C-19.67 6.01 -19.34 5.02 -19 4 C-18.360625 4.515625 -17.72125 5.03125 -17.0625 5.5625 C-12.81546744 7.55600508 -9.48927075 7.10763316 -5 6 C-1.74079519 4.20743736 -1.18947111 3.56841333 0 0 Z " fill="#F4BD3F" transform="translate(365,143)"/>
<path d="M0 0 C0 1.98 0 3.96 0 6 C-0.8971875 5.0409375 -0.8971875 5.0409375 -1.8125 4.0625 C-5.29093798 0.78282991 -8.39952912 0.77984229 -13.0625 0.83984375 C-15.44810848 1.03704123 -17.05558201 1.60001905 -19 3 C-19.33 3.66 -19.66 4.32 -20 5 C-20.66 5 -21.32 5 -22 5 C-22.80932889 16.27883146 -22.80932889 16.27883146 -18 26 C-14.7329506 28.13504544 -12.10169884 28.21670712 -8.25 28.125 C-7.26515625 28.10695312 -6.2803125 28.08890625 -5.265625 28.0703125 C-4.51796875 28.04710937 -3.7703125 28.02390625 -3 28 C-3.08746284 26.56138706 -3.19565348 25.12402492 -3.3125 23.6875 C-3.37050781 22.88699219 -3.42851562 22.08648437 -3.48828125 21.26171875 C-3.8827572 18.58360838 -3.8827572 18.58360838 -7 16 C-3.37 16 0.26 16 4 16 C3.01 16.33 2.02 16.66 1 17 C1 20.96 1 24.92 1 29 C-6.26151792 31.11244158 -13.1047186 32.52218663 -20.3125 29.5 C-24.69976412 26.99549394 -26.67862489 23.82301915 -28 19 C-28.75033553 13.93523516 -28.62012273 10.24024546 -26.3125 5.625 C-18.64062316 -3.08361696 -10.55274814 -3.5924249 0 0 Z " fill="#5D5F73" transform="translate(188,135)"/>
<path d="M0 0 C2.54232342 -0.08152344 5.08199202 -0.14073716 7.625 -0.1875 C8.33785156 -0.21263672 9.05070313 -0.23777344 9.78515625 -0.26367188 C14.59923324 -0.32992064 17.83794702 0.31903794 22 3 C24 6 24 6 23.875 9.375 C22.9318654 13.28227193 21.77341648 15.1425406 19 18 C16.29120665 19.35439668 13.99066732 19.06501451 11 19 C11.598125 18.7525 12.19625 18.505 12.8125 18.25 C15.47957184 16.72595895 16.56182071 15.73254065 18 13 C18.41909372 10.14563196 18.28369801 7.93154613 18 5 C14.61430493 2.43126321 14.61430493 2.43126321 8 2 C8 11.24 8 20.48 8 30 C9.65 30.33 11.3 30.66 13 31 C13 31.66 13 32.32 13 33 C8.71 33 4.42 33 0 33 C0 32.34 0 31.68 0 31 C0.99 30.67 1.98 30.34 3 30 C3.07409401 26.04907941 3.12857406 22.09842706 3.16479492 18.14697266 C3.18732251 16.14080626 3.2254357 14.13483474 3.26367188 12.12890625 C3.27333984 10.87207031 3.28300781 9.61523438 3.29296875 8.3203125 C3.31653442 6.57645264 3.31653442 6.57645264 3.34057617 4.79736328 C3.22818604 3.8742334 3.1157959 2.95110352 3 2 C2.01 1.34 1.02 0.68 0 0 Z " fill="#555972" transform="translate(132,133)"/>
<path d="M0 0 C9.9 0 19.8 0 30 0 C30.33 2.31 30.66 4.62 31 7 C30.34 7 29.68 7 29 7 C28.34 5.68 27.68 4.36 27 3 C23.7 2.67 20.4 2.34 17 2 C17 11.57 17 21.14 17 31 C18.32 31.66 19.64 32.32 21 33 C17.04 33 13.08 33 9 33 C10.32 32.34 11.64 31.68 13 31 C13 21.43 13 11.86 13 2 C9.7 2.33 6.4 2.66 3 3 C2.67 3.99 2.34 4.98 2 6 C1.34 6 0.68 6 0 6 C0 4.02 0 2.04 0 0 Z " fill="#626678" transform="translate(48,133)"/>
<path d="M0 0 C7.59 0 15.18 0 23 0 C24.17647059 9.41176471 24.17647059 9.41176471 23 15 C22.34 15 21.68 15 21 15 C21 17.64 21 20.28 21 23 C20.01 23 19.02 23 18 23 C18.33 22.34 18.66 21.68 19 21 C19.0689472 19.62657169 19.08467708 18.24997898 19.0625 16.875 C19.041875 15.59625 19.02125 14.3175 19 13 C18.67 13.99 18.34 14.98 18 16 C15.03 16 12.06 16 9 16 C9 11.71 9 7.42 9 3 C19.75 2.875 19.75 2.875 22 4 C22 3.01 22 2.02 22 1 C14.74 1 7.48 1 0 1 C0 0.67 0 0.34 0 0 Z " fill="#EFEFF1" transform="translate(277,132)"/>
<path d="M0 0 C8.44646925 4.03872437 8.44646925 4.03872437 12 7 C11.67 8.65 11.34 10.3 11 12 C10.34 12 9.68 12 9 12 C9 11.34 9 10.68 9 10 C8.34 10 7.68 10 7 10 C7.33 10.66 7.66 11.32 8 12 C8.12199138 13.9972542 8.17547512 15.99905981 8.1875 18 C8.20167969 19.0725 8.21585937 20.145 8.23046875 21.25 C8 24 8 24 6 26 C-0.75 24.125 -0.75 24.125 -3 23 C-2.68289063 22.19304687 -2.36578125 21.38609375 -2.0390625 20.5546875 C-0.81087411 16.35299039 -0.55200991 12.4764935 -0.375 8.125 C-0.33632813 7.34125 -0.29765625 6.5575 -0.2578125 5.75 C-0.16433378 3.83368633 -0.08111505 1.91687681 0 0 Z " fill="#ECEDEE" transform="translate(387,135)"/>
<path d="M0 0 C3.96 0 7.92 0 12 0 C11.01 0.66 10.02 1.32 9 2 C8.48815355 5.00414569 8.48815355 5.00414569 8.48828125 8.5390625 C8.45283203 9.84101563 8.41738281 11.14296875 8.38085938 12.484375 C8.35775769 13.86457809 8.33497536 15.24478657 8.3125 16.625 C8.27933555 18.01305352 8.2448467 19.40107607 8.20898438 20.7890625 C8.12625885 24.19262707 8.05718743 27.5959259 8 31 C9.93822596 30.96694498 11.87585668 30.89750095 13.8125 30.8125 C14.89144531 30.77769531 15.97039062 30.74289063 17.08203125 30.70703125 C20.21903157 30.29616398 20.21903157 30.29616398 21.69921875 27.44921875 C22.12847656 26.64097656 22.55773437 25.83273438 23 25 C23.99 25 24.98 25 26 25 C24.125 30.75 24.125 30.75 23 33 C15.41 33 7.82 33 0 33 C0.33 32.34 0.66 31.68 1 31 C1.99 31 2.98 31 4 31 C4 21.43 4 11.86 4 2 C2.68 1.34 1.36 0.68 0 0 Z " fill="#565B74" transform="translate(196,133)"/>
<path d="M0 0 C0 0.66 0 1.32 0 2 C0.763125 2.268125 1.52625 2.53625 2.3125 2.8125 C6.52744887 4.67491927 6.52744887 4.67491927 8 7 C8.24759992 9.71821651 8.13477933 12.25948688 8 15 C7.67 15 7.34 15 7 15 C6.67 13.35 6.34 11.7 6 10 C3.69 9.34 1.38 8.68 -1 8 C-1.33 6.68 -1.66 5.36 -2 4 C-2.66 4 -3.32 4 -4 4 C-4 5.65 -4 7.3 -4 9 C-4.66 9 -5.32 9 -6 9 C-6.33 9.66 -6.66 10.32 -7 11 C-7 9.68 -7 8.36 -7 7 C-7.99 9.31 -8.98 11.62 -10 14 C-9.34 14 -8.68 14 -8 14 C-8.33 15.32 -8.66 16.64 -9 18 C-13.875 17.125 -13.875 17.125 -15 16 C-15.39913636 11.29019099 -15.44529459 8.89058918 -13.3125 4.625 C-9.32625705 0.10007557 -5.87132585 -0.27308492 0 0 Z " fill="#F7F1E3" transform="translate(358,128)"/>
<path d="M0 0 C7 0 7 0 9.4375 1 C11.45804825 3.58630177 11.56127749 5.76587738 11.3828125 8.99609375 C10.76054044 12.25349751 9.47578079 13.84997984 7 16 C3.75 16.8125 3.75 16.8125 1 17 C1 20.63 1 24.26 1 28 C0.67 28 0.34 28 0 28 C0 18.76 0 9.52 0 0 Z " fill="#DFE1E6" transform="translate(140,135)"/>
<path d="M0 0 C0.99 0 1.98 0 3 0 C3.66 1.32 4.32 2.64 5 4 C4.34 4 3.68 4 3 4 C3.66 7.3 4.32 10.6 5 14 C-3.625 13.125 -3.625 13.125 -7 12 C-7 12.66 -7 13.32 -7 14 C-6.401875 14.268125 -5.80375 14.53625 -5.1875 14.8125 C-2.98180967 16.00987475 -1.56416813 17.04478984 0 19 C0 19.99 0 20.98 0 22 C-5.445 23.485 -5.445 23.485 -11 25 C-10.67 23.68 -10.34 22.36 -10 21 C-12.31 21.33 -14.62 21.66 -17 22 C-17 21.01 -17 20.02 -17 19 C-16.195625 18.71125 -15.39125 18.4225 -14.5625 18.125 C-11.8673532 17.26737432 -11.8673532 17.26737432 -11 15 C-10.01 15 -9.02 15 -8 15 C-8.33 13.35 -8.66 11.7 -9 10 C-6.36 10 -3.72 10 -1 10 C-0.67 9.01 -0.34 8.02 0 7 C0.33 8.32 0.66 9.64 1 11 C1.020625 9.741875 1.04125 8.48375 1.0625 7.1875 C1.07410156 6.47980469 1.08570313 5.77210937 1.09765625 5.04296875 C1.08263217 2.79694539 1.08263217 2.79694539 0 0 Z " fill="#F8F3E6" transform="translate(339,115)"/>
<path d="M0 0 C0.66 0 1.32 0 2 0 C4.9692192 10.30493722 4.42142216 20.19597696 0 30 C-2.31 30 -4.62 30 -7 30 C-6.17470513 25.71817604 -5.36539136 21.77645664 -3.5 17.8125 C-0.92178289 12.31579348 -0.70258143 5.95954367 0 0 Z " fill="#565C75" transform="translate(415,165)"/>
<path d="M0 0 C3.63 0 7.26 0 11 0 C9.02 0.99 9.02 0.99 7 2 C7 11.57 7 21.14 7 31 C8.32 31.66 9.64 32.32 11 33 C7.04 33 3.08 33 -1 33 C0.32 32.34 1.64 31.68 3 31 C3 21.43 3 11.86 3 2 C2.01 1.67 1.02 1.34 0 1 C0 0.67 0 0.34 0 0 Z " fill="#4D516B" transform="translate(226,133)"/>
<path d="M0 0 C3.02138567 -0.08149592 6.04053905 -0.14073421 9.0625 -0.1875 C9.91005859 -0.21263672 10.75761719 -0.23777344 11.63085938 -0.26367188 C17.2250736 -0.32846972 21.01960959 0.42533413 26 3 C25.67 3.66 25.34 4.32 25 5 C24.21625 4.67 23.4325 4.34 22.625 4 C18.02007934 2.556785 18.02007934 2.556785 9 3 C8.67 11.25 8.34 19.5 8 28 C7.67 28 7.34 28 7 28 C7 21.73 7 15.46 7 9 C6.34 9 5.68 9 5 9 C5.33 15.93 5.66 22.86 6 30 C5.01 30.33 4.02 30.66 3 31 C3 21.43 3 11.86 3 2 C2.01 1.67 1.02 1.34 0 1 C0 0.67 0 0.34 0 0 Z " fill="#5A5D72" transform="translate(241,133)"/>
<path d="M0 0 C3.96 0 7.92 0 12 0 C11.01 0.66 10.02 1.32 9 2 C8.48815355 5.00414569 8.48815355 5.00414569 8.48828125 8.5390625 C8.45283203 9.84101563 8.41738281 11.14296875 8.38085938 12.484375 C8.35775769 13.86457809 8.33497536 15.24478657 8.3125 16.625 C8.27933555 18.01305352 8.2448467 19.40107607 8.20898438 20.7890625 C8.12625885 24.19262707 8.05718743 27.5959259 8 31 C9.32 31.66 10.64 32.32 12 33 C8.04 33 4.08 33 0 33 C0.99 32.34 1.98 31.68 3 31 C3.46784213 28.0267756 3.46784213 28.0267756 3.3984375 24.53125 C3.40230469 23.23832031 3.40617187 21.94539063 3.41015625 20.61328125 C3.40387207 19.93861816 3.39758789 19.26395508 3.39111328 18.56884766 C3.37505813 16.50746417 3.39095597 14.4480411 3.41015625 12.38671875 C3.40628906 11.09378906 3.40242188 9.80085937 3.3984375 8.46875 C3.39505371 7.27701172 3.39166992 6.08527344 3.38818359 4.85742188 C3.26008301 3.91447266 3.13198242 2.97152344 3 2 C2.01 1.34 1.02 0.68 0 0 Z " fill="#4F556D" transform="translate(116,133)"/>
<path d="M0 0 C0.93853471 2.53404372 1.05321579 3.8107211 0.3125 6.4453125 C-3.89089998 14.62693032 -11.8928641 21.77140753 -20 26 C-21.32 26 -22.64 26 -24 26 C-23.33333333 24.66666667 -22.66666667 23.33333333 -22 22 C-22.5775 22.350625 -23.155 22.70125 -23.75 23.0625 C-26.39786506 24.16577711 -27.33185326 23.80156509 -30 23 C-28.9378125 22.57589844 -27.875625 22.15179688 -26.78125 21.71484375 C-14.53007571 16.68864668 -6.93133883 11.57848646 0 0 Z " fill="#525771" transform="translate(384,152)"/>
<path d="M0 0 C3.49186021 -0.20145347 6.19917389 -0.34907805 9.4375 1.0625 C11 3 11 3 11.4375 6.5 C11 10 11 10 10 11.9375 C6.73357754 13.67278693 3.65648548 13.17982715 0 13 C0 8.71 0 4.42 0 0 Z " fill="#EAECEF" transform="translate(91,135)"/>
<path d="M0 0 C1.37478516 0.01740234 1.37478516 0.01740234 2.77734375 0.03515625 C3.69644531 0.04417969 4.61554688 0.05320313 5.5625 0.0625 C6.27277344 0.07410156 6.98304688 0.08570313 7.71484375 0.09765625 C7.71484375 0.75765625 7.71484375 1.41765625 7.71484375 2.09765625 C1.35179871 7.95334886 -4.29184764 11.72299077 -13.09765625 11.66015625 C-15.1637911 11.51820805 -17.22925527 11.34732338 -19.28515625 11.09765625 C-16.05961806 8.55158979 -12.66155691 6.51289171 -9.09765625 4.47265625 C-1.39836086 0.05975901 -1.39836086 0.05975901 0 0 Z " fill="#52586E" transform="translate(371.28515625,183.90234375)"/>
<path d="M0 0 C2.64 0 5.28 0 8 0 C7.42415568 2.38564077 6.77772405 4.66682784 6 7 C7.06541016 7.18175781 7.06541016 7.18175781 8.15234375 7.3671875 C9.07144531 7.53476563 9.99054688 7.70234375 10.9375 7.875 C11.85402344 8.03742188 12.77054687 8.19984375 13.71484375 8.3671875 C14.84599609 8.68042969 14.84599609 8.68042969 16 9 C16.33 9.66 16.66 10.32 17 11 C16.21753906 11.19335938 15.43507813 11.38671875 14.62890625 11.5859375 C13.61699219 11.84632813 12.60507812 12.10671875 11.5625 12.375 C10.55316406 12.63023437 9.54382813 12.88546875 8.50390625 13.1484375 C5.84429676 13.72573954 5.84429676 13.72573954 5 16 C4.34 16 3.68 16 3 16 C3 17.32 3 18.64 3 20 C2.01 20.66 1.02 21.32 0 22 C-0.99 21.67 -1.98 21.34 -3 21 C-2.34644531 20.46246094 -1.69289063 19.92492187 -1.01953125 19.37109375 C1.52723104 16.38098793 1.45399377 14.93162279 1.3125 11.0625 C1.28800781 10.04285156 1.26351563 9.02320313 1.23828125 7.97265625 C1.01915669 5.2389876 0.60521781 2.67181521 0 0 Z " fill="#F2BA49" transform="translate(364,130)"/>
<path d="M0 0 C0.99 0.99 1.98 1.98 3 3 C2.69320313 3.69480469 2.38640625 4.38960937 2.0703125 5.10546875 C0.93099536 8.18661473 0.37401091 11.06892908 -0.125 14.3125 C-0.37636719 15.91544922 -0.37636719 15.91544922 -0.6328125 17.55078125 C-0.75398438 18.35902344 -0.87515625 19.16726562 -1 20 C-1.66 20 -2.32 20 -3 20 C-3.2165625 21.1446875 -3.2165625 21.1446875 -3.4375 22.3125 C-4 25 -4 25 -5 28 C-7.31 28 -9.62 28 -12 28 C-11.01 26.515 -11.01 26.515 -10 25 C-10 23.68 -10 22.36 -10 21 C-8.68 20.67 -7.36 20.34 -6 20 C-4.7960663 16.24600202 -4.90122383 12.66782588 -4.9375 8.75 C-4.94652344 7.48671875 -4.95554687 6.2234375 -4.96484375 4.921875 C-4.97644531 3.95765625 -4.98804688 2.9934375 -5 2 C-4.34 2 -3.68 2 -3 2 C-3 2.66 -3 3.32 -3 4 C-2.34 4 -1.68 4 -1 4 C-0.67 2.68 -0.34 1.36 0 0 Z " fill="#E4E6EB" transform="translate(399,143)"/>
<path d="M0 0 C7.26 0 14.52 0 22 0 C22 0.99 22 1.98 22 3 C15.07 2.505 15.07 2.505 8 2 C8 6.62 8 11.24 8 16 C10.31 16 12.62 16 15 16 C15 16.33 15 16.66 15 17 C12.36 17 9.72 17 7 17 C7 21.62 7 26.24 7 31 C6.34 31 5.68 31 5 31 C4.67 21.43 4.34 11.86 4 2 C2.68 1.67 1.36 1.34 0 1 C0 0.67 0 0.34 0 0 Z " fill="#565A6B" transform="translate(277,133)"/>
<path d="M0 0 C6.6782778 -0.41097094 10.70743515 -0.30020894 16 4 C17.1875 7.4375 17.1875 7.4375 17 11 C15.1875 13.9375 15.1875 13.9375 13 16 C12.34 16 11.68 16 11 16 C10.67 16.99 10.34 17.98 10 19 C10 18.01 10 17.02 10 16 C7.36 16 4.72 16 2 16 C2 15.67 2 15.34 2 15 C3.670625 14.814375 3.670625 14.814375 5.375 14.625 C9.03103677 14.3534187 9.03103677 14.3534187 11 12 C11.41666667 8.5 11.41666667 8.5 11 5 C7.55549263 2.70366176 5.06187717 2.45983515 1 2 C1 5.96 1 9.92 1 14 C0.67 14 0.34 14 0 14 C0 9.38 0 4.76 0 0 Z " fill="#5A5F78" transform="translate(90,133)"/>
<path d="M0 0 C0.66 0 1.32 0 2 0 C2 9.57 2 19.14 2 29 C3.32 29.66 4.64 30.32 6 31 C2.04 31 -1.92 31 -6 31 C-5.34 30.34 -4.68 29.68 -4 29 C-3.01 29 -2.02 29 -1 29 C-1.00523682 28.15703369 -1.01047363 27.31406738 -1.01586914 26.44555664 C-1.03287826 23.32772064 -1.04543406 20.20990823 -1.05493164 17.09204102 C-1.05997057 15.74079614 -1.06680177 14.38955674 -1.07543945 13.03833008 C-1.08752419 11.09979566 -1.09269828 9.161222 -1.09765625 7.22265625 C-1.10289307 6.05484619 -1.10812988 4.88703613 -1.11352539 3.68383789 C-1 1 -1 1 0 0 Z " fill="#484E6B" transform="translate(63,135)"/>
<path d="M0 0 C0.66 0 1.32 0 2 0 C2.33 2.31 2.66 4.62 3 7 C3.66 7 4.32 7 5 7 C5 5.35 5 3.7 5 2 C6.98 1.67 8.96 1.34 11 1 C11 1.66 11 2.32 11 3 C12.65 3 14.3 3 16 3 C16 4.32 16 5.64 16 7 C15.0925 7.061875 14.185 7.12375 13.25 7.1875 C9.22917915 8.19270521 8.41053468 9.75824646 6 13 C5.01 13 4.02 13 3 13 C2.34 10.03 1.68 7.06 1 4 C0.34 4.66 -0.32 5.32 -1 6 C-0.67 4.02 -0.34 2.04 0 0 Z " fill="#F7EDD9" transform="translate(354,112)"/>
<path d="M0 0 C0 1.32 0 2.64 0 4 C-5.45126259 6.23891142 -10.13190493 7.47606294 -16 8 C-16 7.01 -16 6.02 -16 5 C-19.3 5.66 -22.6 6.32 -26 7 C-26 6.34 -26 5.68 -26 5 C-22.98307429 4.15206752 -19.96094069 3.32437219 -16.9375 2.5 C-15.66616211 2.14228516 -15.66616211 2.14228516 -14.36914062 1.77734375 C-9.4141274 0.43815099 -5.13189753 -0.27852904 0 0 Z " fill="#4A5169" transform="translate(342,180)"/>
<path d="M0 0 C2 3 2 3 1.875 6.375 C0.9318654 10.28227193 -0.22658352 12.1425406 -3 15 C-5.70879335 16.35439668 -8.00933268 16.06501451 -11 16 C-10.401875 15.7525 -9.80375 15.505 -9.1875 15.25 C-6.52042816 13.72595895 -5.43817929 12.73254065 -4 10 C-3.58090628 7.14563196 -3.71630199 4.93154613 -4 2 C-7.18762365 -0.12508244 -9.26512223 -0.5020163 -13 -1 C-13 -1.33 -13 -1.66 -13 -2 C-7.73073566 -3.41370507 -4.76934463 -2.56810865 0 0 Z " fill="#646878" transform="translate(154,136)"/>
<path d="M0 0 C3.3 0 6.6 0 10 0 C12 2 12 2 12 5 C9.36 5 6.72 5 4 5 C3.67 5.99 3.34 6.98 3 8 C2.34 8 1.68 8 1 8 C1 14.93 1 21.86 1 29 C0.67 29 0.34 29 0 29 C0 19.43 0 9.86 0 0 Z " fill="#C7CAD1" transform="translate(65,135)"/>
<path d="M0 0 C3.63 0 7.26 0 11 0 C10.01 0.33 9.02 0.66 8 1 C8 4.96 8 8.92 8 13 C2.16200408 14.69832609 -2.93107371 15.25287193 -9 15 C-9 14.34 -9 13.68 -9 13 C-2.565 12.505 -2.565 12.505 4 12 C3.896875 10.576875 3.79375 9.15375 3.6875 7.6875 C3.62949219 6.88699219 3.57148438 6.08648437 3.51171875 5.26171875 C3.1172428 2.58360838 3.1172428 2.58360838 0 0 Z " fill="#56586D" transform="translate(181,151)"/>
<path d="M0 0 C0.66 0 1.32 0 2 0 C1.49547781 3.74787912 0.91840767 7.32636934 0 11 C3.3 10.67 6.6 10.34 10 10 C9.34 11.32 8.68 12.64 8 14 C4.7 13.34 1.4 12.68 -2 12 C-2.33 12.99 -2.66 13.98 -3 15 C-4.65 13.68 -6.3 12.36 -8 11 C-5.69 11 -3.38 11 -1 11 C-1 10.01 -1 9.02 -1 8 C-3.64 8.33 -6.28 8.66 -9 9 C-9 8.34 -9 7.68 -9 7 C-8.443125 6.773125 -7.88625 6.54625 -7.3125 6.3125 C-4.77527615 5.00796402 -4.77527615 5.00796402 -2.375 2.375 C-1.59125 1.59125 -0.8075 0.8075 0 0 Z " fill="#F4C356" transform="translate(366,118)"/>
<path d="M0 0 C0 0.66 0 1.32 0 2 C0.763125 2.268125 1.52625 2.53625 2.3125 2.8125 C6.52744887 4.67491927 6.52744887 4.67491927 8 7 C8.24759992 9.71821651 8.13477933 12.25948688 8 15 C7.67 15 7.34 15 7 15 C6.67 13.35 6.34 11.7 6 10 C3.69 9.34 1.38 8.68 -1 8 C-1.33 6.68 -1.66 5.36 -2 4 C-2.99 4.33 -3.98 4.66 -5 5 C-7.00875442 4.72428861 -9.01178687 4.39764263 -11 4 C-11 3.34 -11 2.68 -11 2 C-7.17010894 0.19769832 -4.21878192 -0.19622241 0 0 Z " fill="#F8EED8" transform="translate(358,128)"/>
<path d="M0 0 C0.99 0.33 1.98 0.66 3 1 C4.1875 4.5625 4.1875 4.5625 5 8 C5.99 7.01 6.98 6.02 8 5 C7.67 7.64 7.34 10.28 7 13 C6.01 12.67 5.02 12.34 4 12 C3.67 11.34 3.34 10.68 3 10 C2.01 10.66 1.02 11.32 0 12 C-0.33 11.01 -0.66 10.02 -1 9 C-2.98 9 -4.96 9 -7 9 C-6.67 8.34 -6.34 7.68 -6 7 C-5.34 7 -4.68 7 -4 7 C-3.896875 6.401875 -3.79375 5.80375 -3.6875 5.1875 C-2.91123545 2.71756736 -1.92911079 1.67748765 0 0 Z " fill="#F8EFDC" transform="translate(349,155)"/>
<path d="M0 0 C0 0.66 0 1.32 0 2 C-6.37457348 2.95468258 -12.56061653 3.1202324 -19 3.0625 C-19.96550781 3.05798828 -20.93101562 3.05347656 -21.92578125 3.04882812 C-24.28392089 3.03715417 -26.64192602 3.02078021 -29 3 C-22.3978953 -1.40140313 -7.31193907 -3.65596953 0 0 Z " fill="#444C69" transform="translate(304,191)"/>
<path d="M0 0 C0.33 0 0.66 0 1 0 C1 9.57 1 19.14 1 29 C0.34 29.33 -0.32 29.66 -1 30 C0.32 30.66 1.64 31.32 3 32 C1.25215171 32.36463732 -0.49840502 32.7163078 -2.25 33.0625 C-3.71179688 33.35833984 -3.71179688 33.35833984 -5.203125 33.66015625 C-7.868119 33.98397535 -9.48871723 33.85503199 -12 33 C-11.01 32.34 -10.02 31.68 -9 31 C-7.78715124 27.94570927 -7.78715124 27.94570927 -7 25 C-6.01 25.99 -5.02 26.98 -4 28 C-3.01 27.67 -2.02 27.34 -1 27 C-0.67 18.09 -0.34 9.18 0 0 Z " fill="#D3D6DE" transform="translate(228,135)"/>
<path d="M0 0 C0.33 0 0.66 0 1 0 C1.01981934 0.57967529 1.03963867 1.15935059 1.06005859 1.7565918 C1.15572601 4.40065937 1.26523453 7.0439817 1.375 9.6875 C1.4059375 10.59951172 1.436875 11.51152344 1.46875 12.45117188 C1.50742188 13.33740234 1.54609375 14.22363281 1.5859375 15.13671875 C1.6173584 15.94842529 1.6487793 16.76013184 1.68115234 17.59643555 C1.96794831 20.51453235 1.96794831 20.51453235 4 25 C4 20.71 4 16.42 4 12 C5.65 12 7.3 12 9 12 C7.68 12.33 6.36 12.66 5 13 C5 17.29 5 21.58 5 26 C6.32 26.66 7.64 27.32 9 28 C4.71 28 0.42 28 -4 28 C-2.68 27.34 -1.36 26.68 0 26 C0 17.42 0 8.84 0 0 Z " fill="#767A8C" transform="translate(86,138)"/>
<path d="M0 0 C3.63 0 7.26 0 11 0 C9.02 0.99 9.02 0.99 7 2 C7 11.57 7 21.14 7 31 C6.67 31 6.34 31 6 31 C5.67 22.42 5.34 13.84 5 5 C4.67 10.94 4.34 16.88 4 23 C3.67 23 3.34 23 3 23 C3 16.07 3 9.14 3 2 C2.01 1.67 1.02 1.34 0 1 C0 0.67 0 0.34 0 0 Z " fill="#606378" transform="translate(226,133)"/>
<path d="M0 0 C0.69867188 0.08378906 1.39734375 0.16757813 2.1171875 0.25390625 C3.02726562 0.35574219 3.93734375 0.45757812 4.875 0.5625 C5.77992188 0.66691406 6.68484375 0.77132812 7.6171875 0.87890625 C10.01653057 1.19674852 10.01653057 1.19674852 12 0 C12 0.66 12 1.32 12 2 C13.65 1.67 15.3 1.34 17 1 C16.42647107 4.87132028 14.51295648 7.08172796 12 10 C12 9.34 12 8.68 12 8 C10.68 7.67 9.36 7.34 8 7 C9.32 6.67 10.64 6.34 12 6 C11.67 5.34 11.34 4.68 11 4 C9.02 4 7.04 4 5 4 C5 4.66 5 5.32 5 6 C4.01 6 3.02 6 2 6 C1.67 6.99 1.34 7.98 1 9 C0.67 6.03 0.34 3.06 0 0 Z " fill="#F5EBCF" transform="translate(366,151)"/>
<path d="M0 0 C0.33 0 0.66 0 1 0 C1 9.57 1 19.14 1 29 C2.32 29.66 3.64 30.32 5 31 C1.04 31 -2.92 31 -7 31 C-5.68 29.68 -4.36 28.36 -3 27 C-2.31466368 24.65961239 -2.31466368 24.65961239 -2.25 22.25 C-2.19328125 21.45078125 -2.1365625 20.6515625 -2.078125 19.828125 C-2.05234375 19.22484375 -2.0265625 18.6215625 -2 18 C-1.34 18 -0.68 18 0 18 C0 12.06 0 6.12 0 0 Z " fill="#5C607A" transform="translate(123,135)"/>
<path d="M0 0 C0.66 0 1.32 0 2 0 C2.02505615 0.56509277 2.0501123 1.13018555 2.07592773 1.71240234 C2.19179956 4.26683742 2.31456537 6.8208955 2.4375 9.375 C2.47681641 10.26445312 2.51613281 11.15390625 2.55664062 12.0703125 C2.59853516 12.92109375 2.64042969 13.771875 2.68359375 14.6484375 C2.72025146 15.43395996 2.75690918 16.21948242 2.79467773 17.02880859 C2.890891 19.07523496 2.890891 19.07523496 4 21 C6.02463255 21.65213292 6.02463255 21.65213292 8 22 C8 22.66 8 23.32 8 24 C3.71 24 -0.58 24 -5 24 C-3 22 -3 22 0 20 C0.41527124 17.87305335 0.41527124 17.87305335 0.29296875 15.4296875 C0.2784668 14.08583984 0.2784668 14.08583984 0.26367188 12.71484375 C0.23853516 11.77769531 0.21339844 10.84054688 0.1875 9.875 C0.16719727 8.45767578 0.16719727 8.45767578 0.14648438 7.01171875 C0.11106306 4.67391221 0.06167271 2.33723763 0 0 Z " fill="#484D69" transform="translate(246,142)"/>
<path d="M0 0 C0.75 1.75 0.75 1.75 1 4 C-1.38729637 7.09464344 -3.21245224 8.32244226 -7 9 C-8.74886981 9.06624507 -10.50002748 9.08552595 -12.25 9.0625 C-13.14203125 9.05347656 -14.0340625 9.04445312 -14.953125 9.03515625 C-15.62859375 9.02355469 -16.3040625 9.01195312 -17 9 C-17 8.34 -17 7.68 -17 7 C-17.99 7.495 -17.99 7.495 -19 8 C-19.65213292 10.02463255 -19.65213292 10.02463255 -20 12 C-20.66 12 -21.32 12 -22 12 C-22 11.01 -22 10.02 -22 9 C-22.99 9.33 -23.98 9.66 -25 10 C-26.39439664 10.06665376 -27.79169875 10.08538199 -29.1875 10.0625 C-31.0746875 10.0315625 -31.0746875 10.0315625 -33 10 C-31.68 8.68 -30.36 7.36 -29 6 C-29 6.66 -29 7.32 -29 8 C-24.545 7.505 -24.545 7.505 -20 7 C-19.67 6.01 -19.34 5.02 -19 4 C-18.360625 4.515625 -17.72125 5.03125 -17.0625 5.5625 C-12.81546744 7.55600508 -9.48927075 7.10763316 -5 6 C-1.74079519 4.20743736 -1.18947111 3.56841333 0 0 Z " fill="#F6CE76" transform="translate(365,143)"/>
<path d="M0 0 C0.33 0 0.66 0 1 0 C1 4.29 1 8.58 1 13 C3.97 13 6.94 13 10 13 C10.33 11.68 10.66 10.36 11 9 C11.33 9 11.66 9 12 9 C12 12.3 12 15.6 12 19 C11.34 18.67 10.68 18.34 10 18 C10 17.34 10 16.68 10 16 C7.03 16 4.06 16 1 16 C1 20.29 1 24.58 1 29 C0.67 29 0.34 29 0 29 C0 19.43 0 9.86 0 0 Z " fill="#8D909F" transform="translate(285,135)"/>
<path d="M0 0 C2.475 0.495 2.475 0.495 5 1 C5.33 10.57 5.66 20.14 6 30 C5.01 30.33 4.02 30.66 3 31 C3 21.43 3 11.86 3 2 C2.01 1.67 1.02 1.34 0 1 C0 0.67 0 0.34 0 0 Z " fill="#7A7E90" transform="translate(241,133)"/>
<path d="M0 0 C0.66 1.32 1.32 2.64 2 4 C2.66 4 3.32 4 4 4 C4.33 3.01 4.66 2.02 5 1 C5.66 1.33 6.32 1.66 7 2 C6.67 2.33 6.34 2.66 6 3 C7.65 3.33 9.3 3.66 11 4 C9 6 9 6 5.6875 6.375 C1.62683185 7.06324884 -0.04307531 8.22228287 -3 11 C-3.12375 10.360625 -3.2475 9.72125 -3.375 9.0625 C-3.58125 8.381875 -3.7875 7.70125 -4 7 C-4.66 6.67 -5.32 6.34 -6 6 C-5.34 6 -4.68 6 -4 6 C-3.67 5.01 -3.34 4.02 -3 3 C-1.4375 1.3125 -1.4375 1.3125 0 0 Z " fill="#EEF0F1" transform="translate(382,167)"/>
<path d="M0 0 C0.66 0 1.32 0 2 0 C2.33 3.63 2.66 7.26 3 11 C5.31 11.33 7.62 11.66 10 12 C10 12.33 10 12.66 10 13 C7.36 13 4.72 13 2 13 C2 17.62 2 22.24 2 27 C1.34 27 0.68 27 0 27 C0 18.09 0 9.18 0 0 Z " fill="#484E67" transform="translate(282,137)"/>
<path d="M0 0 C0.33 0 0.66 0 1 0 C1.33 4.29 1.66 8.58 2 13 C3.65 13.33 5.3 13.66 7 14 C7 14.66 7 15.32 7 16 C2.71 16 -1.58 16 -6 16 C-6 15.34 -6 14.68 -6 14 C-5.36578125 13.79632813 -4.7315625 13.59265625 -4.078125 13.3828125 C-1.70935435 12.12778129 -1.70935435 12.12778129 -1.171875 9.1796875 C-0.96304688 7.54386719 -0.96304688 7.54386719 -0.75 5.875 C-0.60046875 4.77929688 -0.4509375 3.68359375 -0.296875 2.5546875 C-0.19890625 1.71164063 -0.1009375 0.86859375 0 0 Z " fill="#4C5068" transform="translate(138,150)"/>
<path d="M0 0 C1.4540625 0.0309375 1.4540625 0.0309375 2.9375 0.0625 C3.2675 3.0325 3.5975 6.0025 3.9375 9.0625 C2.2875 9.3925 0.6375 9.7225 -1.0625 10.0625 C-1.0625 9.4025 -1.0625 8.7425 -1.0625 8.0625 C-1.7225 8.0625 -2.3825 8.0625 -3.0625 8.0625 C-3.44313221 5.7364143 -3.77519945 3.40194736 -4.0625 1.0625 C-3.0625 0.0625 -3.0625 0.0625 0 0 Z " fill="#F7F6F6" transform="translate(379.0625,142.9375)"/>
<path d="M0 0 C8.44646925 4.03872437 8.44646925 4.03872437 12 7 C11.67 8.65 11.34 10.3 11 12 C10.34 12 9.68 12 9 12 C9 11.34 9 10.68 9 10 C8.34 9.67 7.68 9.34 7 9 C6.67 8.34 6.34 7.68 6 7 C4.02 7.99 4.02 7.99 2 9 C0.50178941 5.62902617 0 3.79557881 0 0 Z " fill="#F0F2F7" transform="translate(387,135)"/>
<path d="M0 0 C0.99 0 1.98 0 3 0 C3.66 1.32 4.32 2.64 5 4 C4.34 4 3.68 4 3 4 C3.66 7.3 4.32 10.6 5 14 C-1.93 13.505 -1.93 13.505 -9 13 C-9 12.01 -9 11.02 -9 10 C-6.36 10 -3.72 10 -1 10 C-0.67 9.01 -0.34 8.02 0 7 C0.33 8.32 0.66 9.64 1 11 C1.0309375 9.1128125 1.0309375 9.1128125 1.0625 7.1875 C1.07410156 6.47980469 1.08570313 5.77210937 1.09765625 5.04296875 C1.08263217 2.79694539 1.08263217 2.79694539 0 0 Z " fill="#FAE8CC" transform="translate(339,115)"/>
<path d="M0 0 C-0.97866338 1.14626322 -1.95794587 2.29199788 -2.9375 3.4375 C-3.48277344 4.07558594 -4.02804687 4.71367187 -4.58984375 5.37109375 C-5.36795695 6.26991149 -6.15936528 7.15936528 -7 8 C-9.67058851 8.14115161 -12.32432238 8.04247107 -15 8 C-13.33333333 6.33333333 -11.66666667 4.66666667 -10 3 C-9.319375 2.1028125 -9.319375 2.1028125 -8.625 1.1875 C-5.94814019 -0.76866678 -3.19170739 -0.18066268 0 0 Z " fill="#696D81" transform="translate(391,173)"/>
<path d="M0 0 C2.64 0 5.28 0 8 0 C8.33 0.99 8.66 1.98 9 3 C8.01 3.33 7.02 3.66 6 4 C6.99 4.33 7.98 4.66 9 5 C8.67 5.66 8.34 6.32 8 7 C6.68 6.67 5.36 6.34 4 6 C3.67 6.99 3.34 7.98 3 9 C2.01 9.33 1.02 9.66 0 10 C-0.33 7.69 -0.66 5.38 -1 3 C-0.01 3 0.98 3 2 3 C2 2.34 2 1.68 2 1 C1.34 0.67 0.68 0.34 0 0 Z " fill="#F7F5F8" transform="translate(369,154)"/>
<path d="M0 0 C1.32 0.66 2.64 1.32 4 2 C3.67 2.66 3.34 3.32 3 4 C5.31 4.33 7.62 4.66 10 5 C9 8 9 8 7 9 C6.01 10.485 6.01 10.485 5 12 C4.34 11.34 3.68 10.68 3 10 C3.66 10 4.32 10 5 10 C5 9.34 5 8.68 5 8 C2.03 8 -0.94 8 -4 8 C-3.34 7.67 -2.68 7.34 -2 7 C-2 6.34 -2 5.68 -2 5 C-1.34 4.67 -0.68 4.34 0 4 C-0.66 3.34 -1.32 2.68 -2 2 C-1.34 2 -0.68 2 0 2 C0 1.34 0 0.68 0 0 Z " fill="#E8ECEC" transform="translate(374,176)"/>
<path d="M0 0 C0.928125 0.33 1.85625 0.66 2.8125 1 C5.92029291 2.14967004 5.92029291 2.14967004 9 2 C9.33 1.34 9.66 0.68 10 0 C11.65 0.33 13.3 0.66 15 1 C11.86077669 5.52048157 8.78504172 7.51545911 4 10 C3.67 9.34 3.34 8.68 3 8 C3.66 8 4.32 8 5 8 C5 6.68 5 5.36 5 4 C3.35 4 1.7 4 0 4 C0 2.68 0 1.36 0 0 Z " fill="#ECEDE5" transform="translate(363,160)"/>
<path d="M0 0 C4.92514366 5.59675416 5.24915461 11.89909367 5 19 C4.67 19 4.34 19 4 19 C3.67 16.03 3.34 13.06 3 10 C2.34 10 1.68 10 1 10 C1 12.97 1 15.94 1 19 C0.67 19 0.34 19 0 19 C-0.04898437 18.28714844 -0.09796875 17.57429688 -0.1484375 16.83984375 C-0.58128523 11.29491509 -1.24028816 6.27913551 -3 1 C-2.01 0.67 -1.02 0.34 0 0 Z " fill="#6C7186" transform="translate(414,155)"/>
<path d="M0 0 C1.09570312 0.19464844 2.19140625 0.38929688 3.3203125 0.58984375 C4.16335938 0.74582031 5.00640625 0.90179688 5.875 1.0625 C5.875 5.0625 5.875 5.0625 3.375 7.8125 C2.55 8.555 1.725 9.2975 0.875 10.0625 C0.875 9.0725 0.875 8.0825 0.875 7.0625 C-0.115 6.7325 -1.105 6.4025 -2.125 6.0625 C-1.465 5.0725 -0.805 4.0825 -0.125 3.0625 C-1.259375 2.93875 -2.39375 2.815 -3.5625 2.6875 C-4.738125 2.48125 -5.91375 2.275 -7.125 2.0625 C-7.455 1.4025 -7.785 0.7425 -8.125 0.0625 C-5.2144446 -1.3927777 -3.16650948 -0.57266661 0 0 Z " fill="#F8F2E7" transform="translate(332.125,140.9375)"/>
<path d="M0 0 C0.99 0 1.98 0 3 0 C1.125 5.75 1.125 5.75 0 8 C-7.59 8 -15.18 8 -23 8 C-22.67 7.34 -22.34 6.68 -22 6 C-21.16021606 5.99383667 -21.16021606 5.99383667 -20.3034668 5.98754883 C-17.7637413 5.95462695 -15.22642019 5.88399306 -12.6875 5.8125 C-11.36588867 5.80379883 -11.36588867 5.80379883 -10.01757812 5.79492188 C-7.57719256 5.71141058 -5.3696224 5.59484348 -3 5 C-1.02878106 2.57907181 -1.02878106 2.57907181 0 0 Z " fill="#57576C" transform="translate(219,158)"/>
<path d="M0 0 C0.33 1.32 0.66 2.64 1 4 C2.65 4 4.3 4 6 4 C5.34 6.31 4.68 8.62 4 11 C1.69 11 -0.62 11 -3 11 C-2.69078116 9.54096742 -2.37751201 8.08279278 -2.0625 6.625 C-1.88847656 5.81289062 -1.71445312 5.00078125 -1.53515625 4.1640625 C-1 2 -1 2 0 0 Z " fill="#676B81" transform="translate(411,184)"/>
<path d="M0 0 C2.0625 0.4375 2.0625 0.4375 4 1 C3.01 1 2.02 1 1 1 C1 1.66 1 2.32 1 3 C5.95 1.515 5.95 1.515 11 0 C11.33 0.66 11.66 1.32 12 2 C11.67 2.66 11.34 3.32 11 4 C12.65 3.67 14.3 3.34 16 3 C13.12775803 5.87224197 9.87564892 5.72212329 6 6 C2 6 2 6 0 5 C-0.6875 3 -0.6875 3 -1 1 C-0.67 0.67 -0.34 0.34 0 0 Z " fill="#59607B" transform="translate(315,184)"/>
<path d="M0 0 C1.625 2 1.625 2 3 4 C-2.5 8 -2.5 8 -7 8 C-6 6 -6 6 -5 4 C-5.5775 4.350625 -6.155 4.70125 -6.75 5.0625 C-9.39786506 6.16577711 -10.33185326 5.80156509 -13 5 C-11.21046815 4.16209211 -9.41830305 3.32980604 -7.625 2.5 C-6.62726563 2.0359375 -5.62953125 1.571875 -4.6015625 1.09375 C-2 0 -2 0 0 0 Z " fill="#686F81" transform="translate(367,170)"/>
<path d="M0 0 C2.475 0.495 2.475 0.495 5 1 C5.66 1.99 6.32 2.98 7 4 C6.54625 4.4125 6.0925 4.825 5.625 5.25 C3.94049626 7.06408095 3.00734029 8.75285627 2 11 C2.66 11.33 3.32 11.66 4 12 C4 12.66 4 13.32 4 14 C2.68 13.67 1.36 13.34 0 13 C0 8.71 0 4.42 0 0 Z " fill="#E9EAEE" transform="translate(91,151)"/>
<path d="M0 0 C2.97 0.495 2.97 0.495 6 1 C5.67 1.66 5.34 2.32 5 3 C3 3.66666667 1 4.33333333 -1 5 C-1.33 5.66 -1.66 6.32 -2 7 C-2.66 7 -3.32 7 -4 7 C-4 8.32 -4 9.64 -4 11 C-4.99 11.66 -5.98 12.32 -7 13 C-7.99 12.67 -8.98 12.34 -10 12 C-9.38125 11.484375 -8.7625 10.96875 -8.125 10.4375 C-5.52523258 7.45541385 -4.88050877 4.81553799 -4 1 C-3.01 1.33 -2.02 1.66 -1 2 C-0.67 1.34 -0.34 0.68 0 0 Z " fill="#F8B925" transform="translate(371,139)"/>
<path d="M0 0 C1.98 0 3.96 0 6 0 C5.34 3.3 4.68 6.6 4 10 C3.01 10 2.02 10 1 10 C-0.60725635 6.78548731 -0.05748185 3.56387464 0 0 Z " fill="#FBB831" transform="translate(352,153)"/>
<path d="M0 0 C2.97 1.32 5.94 2.64 9 4 C8.34 4.66 7.68 5.32 7 6 C5.35 5.01 3.7 4.02 2 3 C1.95101563 4.12019531 1.90203125 5.24039063 1.8515625 6.39453125 C1.77652144 7.86721203 1.70097418 9.33986707 1.625 10.8125 C1.5940625 11.55048828 1.563125 12.28847656 1.53125 13.04882812 C1.32653852 16.81893115 1.13566173 18.79650741 -1 22 C-2.125 20.4375 -2.125 20.4375 -3 18 C-2.56794753 16.37149455 -2.1221377 14.74436493 -1.58203125 13.1484375 C-0.42403666 8.87396081 -0.30265186 4.40438102 0 0 Z " fill="#898D92" transform="translate(386,133)"/>
<path d="M0 0 C-0.66 0.66 -1.32 1.32 -2 2 C-2.99 2 -3.98 2 -5 2 C-5 2.66 -5 3.32 -5 4 C-3.68 4.33 -2.36 4.66 -1 5 C-3.12209776 5.69640673 -5.24778527 6.38188357 -7.375 7.0625 C-8.55835938 7.44535156 -9.74171875 7.82820312 -10.9609375 8.22265625 C-14 9 -14 9 -16 8 C-13.36 7.01 -10.72 6.02 -8 5 C-8 4.34 -8 3.68 -8 3 C-8.99 2.34 -9.98 1.68 -11 1 C-9.5437328 0.63743142 -8.08488815 0.28520207 -6.625 -0.0625 C-5.81289063 -0.25972656 -5.00078125 -0.45695313 -4.1640625 -0.66015625 C-2 -1 -2 -1 0 0 Z " fill="#646A7C" transform="translate(350,178)"/>
<path d="M0 0 C0.66 0.33 1.32 0.66 2 1 C1.76435605 5.08449505 1.59037881 7.34214932 -1.1875 10.4375 C-4.41176773 12.22875985 -6.36804503 12.33785628 -10 12 C-9.401875 11.7525 -8.80375 11.505 -8.1875 11.25 C-5.71222841 9.83555909 -4.66569196 8.27139812 -3 6 C-2.34 6 -1.68 6 -1 6 C-1.020625 5.195625 -1.04125 4.39125 -1.0625 3.5625 C-1 1 -1 1 0 0 Z " fill="#636674" transform="translate(153,140)"/>
<path d="M0 0 C5.94 0.99 5.94 0.99 12 2 C12 2.33 12 2.66 12 3 C10.35 3.33 8.7 3.66 7 4 C7.33 4.33 7.66 4.66 8 5 C8.04080783 6.99958364 8.04254356 9.00045254 8 11 C5.69 11.33 3.38 11.66 1 12 C4 10 4 10 7 10 C5.06143438 6.4136536 3.2775413 4.37339198 0 2 C0 1.34 0 0.68 0 0 Z " fill="#F0C157" transform="translate(332,127)"/>
<path d="M0 0 C0.33 0 0.66 0 1 0 C1 7.26 1 14.52 1 22 C2.32 22.66 3.64 23.32 5 24 C1.04 24 -2.92 24 -7 24 C-6.34 23.34 -5.68 22.68 -5 22 C-3.35 22 -1.7 22 0 22 C0 14.74 0 7.48 0 0 Z " fill="#575A6A" transform="translate(64,142)"/>
<path d="M0 0 C1.32 0 2.64 0 4 0 C4 3.63 4 7.26 4 11 C3.34 10.01 2.68 9.02 2 8 C-0.05925139 7.27617533 -0.05925139 7.27617533 -2 7 C-1.34 4.69 -0.68 2.38 0 0 Z " fill="#E9E9EB" transform="translate(156,141)"/>
<path d="M0 0 C3.3 0 6.6 0 10 0 C6 2 6 2 1 1 C1 5.29 1 9.58 1 14 C0.34 13.67 -0.32 13.34 -1 13 C-2.17611086 8.00152882 -1.96237913 4.73279673 0 0 Z " fill="#474E67" transform="translate(89,149)"/>
<path d="M0 0 C2.1346875 -0.0309375 2.1346875 -0.0309375 4.3125 -0.0625 C5.51326172 -0.07990234 5.51326172 -0.07990234 6.73828125 -0.09765625 C9 0 9 0 12 1 C11.67 2.32 11.34 3.64 11 5 C10.01 4.34 9.02 3.68 8 3 C5.67612053 2.60612212 3.34206251 2.26513915 1 2 C1 5.96 1 9.92 1 14 C0.67 14 0.34 14 0 14 C0 9.38 0 4.76 0 0 Z " fill="#6C6E7D" transform="translate(90,133)"/>
<path d="M0 0 C9.24 0 18.48 0 28 0 C28 0.33 28 0.66 28 1 C21.4 1 14.8 1 8 1 C8 1.66 8 2.32 8 3 C5.36 2.67 2.72 2.34 0 2 C0 1.34 0 0.68 0 0 Z " fill="#EBEDF7" transform="translate(268,195)"/>
<path d="M0 0 C1.32 0 2.64 0 4 0 C5.125 2.3125 5.125 2.3125 6 5 C5.01 6.485 5.01 6.485 4 8 C2.68 8 1.36 8 0 8 C0 5.36 0 2.72 0 0 Z " fill="#F6F7F7" transform="translate(92,136)"/>
<path d="M0 0 C1.32 0 2.64 0 4 0 C3.42415568 2.38564077 2.77772405 4.66682784 2 7 C-0.31 7 -2.62 7 -5 7 C-4.26708288 5.8225266 -3.51296199 4.65823146 -2.75 3.5 C-2.33234375 2.8503125 -1.9146875 2.200625 -1.484375 1.53125 C-0.74960937 0.77328125 -0.74960937 0.77328125 0 0 Z " fill="#606677" transform="translate(392,164)"/>
<path d="M0 0 C0.99 0.66 1.98 1.32 3 2 C3 2.99 3 3.98 3 5 C-3.28571429 7.42857143 -3.28571429 7.42857143 -7 6 C-4.9859524 2.9789286 -3.36720387 1.39332574 0 0 Z " fill="#F8B929" transform="translate(342,145)"/>
<path d="M0 0 C0.66 0.33 1.32 0.66 2 1 C1.88601335 2.62580966 1.75844341 4.25067157 1.625 5.875 C1.52058594 7.23238281 1.52058594 7.23238281 1.4140625 8.6171875 C1 11 1 11 -1 13 C-2.39457694 10.21084611 -2.1821922 8.09726736 -2 5 C-1 2.125 -1 2.125 0 0 Z M-4 2 C-1.82233925 6.35532149 -1.96960445 7.46625958 -3 12 C-3.33 12 -3.66 12 -4 12 C-4 8.7 -4 5.4 -4 2 Z " fill="#616680" transform="translate(164,142)"/>
<path d="M0 0 C0.99 0 1.98 0 3 0 C3 1.98 3 3.96 3 6 C2.05125 6.28875 1.1025 6.5775 0.125 6.875 C-3.05211578 7.76825109 -3.05211578 7.76825109 -5 10 C-5.33 9.01 -5.66 8.02 -6 7 C-5.38125 6.95875 -4.7625 6.9175 -4.125 6.875 C-3.42375 6.58625 -2.7225 6.2975 -2 6 C-0.6954344 3.00384054 -0.6954344 3.00384054 0 0 Z " fill="#DDE1EA" transform="translate(395,157)"/>
<path d="M0 0 C5.59282842 1.36410449 8.91193811 4.15383526 13 8 C12.01 9.485 12.01 9.485 11 11 C7.33333333 7.33333333 3.66666667 3.66666667 0 0 Z " fill="#717480" transform="translate(394,138)"/>
<path d="M0 0 C0.33 0.99 0.66 1.98 1 3 C0.34 3 -0.32 3 -1 3 C-0.67 2.01 -0.34 1.02 0 0 Z M-13 1 C-12.67 1.66 -12.34 2.32 -12 3 C-9.44588787 3.31532249 -6.91917172 3.37953701 -4.34765625 3.4609375 C-2 4 -2 4 -0.68359375 6.0390625 C-0.34521484 7.00972656 -0.34521484 7.00972656 0 8 C-1.65 8.33 -3.3 8.66 -5 9 C-4.34 8.34 -3.68 7.68 -3 7 C-6.3 6.01 -9.6 5.02 -13 4 C-13 3.01 -13 2.02 -13 1 Z " fill="#F9EAD0" transform="translate(383,133)"/>
<path d="M0 0 C7.59 0 15.18 0 23 0 C23.33 2.31 23.66 4.62 24 7 C23.34 7 22.68 7 22 7 C21 4 21 4 22 1 C14.74 1 7.48 1 0 1 C0 0.67 0 0.34 0 0 Z " fill="#BABCC7" transform="translate(277,132)"/>
<path d="M0 0 C2.64 0 5.28 0 8 0 C8 0.99 8 1.98 8 3 C6.68 3 5.36 3 4 3 C4.66 4.98 5.32 6.96 6 9 C5.01 9 4.02 9 3 9 C0.50022457 5.66696609 0 4.26696398 0 0 Z " fill="#F5B623" transform="translate(364,130)"/>
<path d="M0 0 C5.75 4.75 5.75 4.75 8 7 C4.6868604 8.04127245 3.39801692 8.18574123 0.1875 6.6875 C-0.534375 6.130625 -1.25625 5.57375 -2 5 C-2 4.34 -2 3.68 -2 3 C-1.34 3 -0.68 3 0 3 C0 2.01 0 1.02 0 0 Z " fill="#636679" transform="translate(166,157)"/>
<path d="M0 0 C-0.020625 0.78375 -0.04125 1.5675 -0.0625 2.375 C-0.18684063 4.98114961 -0.18684063 4.98114961 1 7 C0.34 7.66 -0.32 8.32 -1 9 C-6 3.25 -6 3.25 -6 1 C-4 0 -4 0 0 0 Z " fill="#F9ECD8" transform="translate(376,142)"/>
<path d="M0 0 C-0.33 0.99 -0.66 1.98 -1 3 C-3.31 3.33 -5.62 3.66 -8 4 C-8 3.34 -8 2.68 -8 2 C-8.66 1.67 -9.32 1.34 -10 1 C-6.21812119 -0.83691257 -4.05431692 -1.15837626 0 0 Z " fill="#424865" transform="translate(343,181)"/>
<path d="M0 0 C1.11353866 3.74626219 0.80746732 5.47543872 -1 9 C-2.625 10.8125 -2.625 10.8125 -4 12 C-4.8125 9.9375 -4.8125 9.9375 -5 7 C-3.58973707 4.45310725 -1.86023965 2.23357494 0 0 Z " fill="#6A6C80" transform="translate(384,152)"/>
<path d="M0 0 C0 0.99 0 1.98 0 3 C-0.763125 2.67 -1.52625 2.34 -2.3125 2 C-7.25174651 0.66054332 -11.91463109 0.83712342 -17 1 C-17 0.34 -17 -0.32 -17 -1 C-10.72532201 -2.0748291 -6.09339169 -1.88341198 0 0 Z " fill="#666877" transform="translate(266,135)"/>
<path d="M0 0 C3.36720387 1.39332574 4.9859524 2.9789286 7 6 C5.68 6 4.36 6 3 6 C2.67 6.99 2.34 7.98 2 9 C0.14223235 5.86501708 -0.20140476 3.62528568 0 0 Z " fill="#EEB940" transform="translate(342,119)"/>
<path d="M0 0 C-0.57352893 3.87132028 -2.48704352 6.08172796 -5 9 C-5 8.34 -5 7.68 -5 7 C-6.32 6.67 -7.64 6.34 -9 6 C-7.68 5.67 -6.36 5.34 -5 5 C-4.814375 4.0409375 -4.814375 4.0409375 -4.625 3.0625 C-4.41875 2.381875 -4.2125 1.70125 -4 1 C-2 0 -2 0 0 0 Z " fill="#E8ECE6" transform="translate(383,152)"/>
<path d="M0 0 C3.3 0 6.6 0 10 0 C10 0.66 10 1.32 10 2 C6.67438135 3.76062164 5.40826005 4.10784228 1.6875 3.125 C0.800625 2.75375 -0.08625 2.3825 -1 2 C-0.67 1.34 -0.34 0.68 0 0 Z " fill="#6F718D" transform="translate(369,184)"/>
<path d="M0 0 C0.66 0 1.32 0 2 0 C3.28317892 3.84953676 3.06643637 6.94738135 3 11 C2.01 11 1.02 11 0 11 C0 7.37 0 3.74 0 0 Z " fill="#474D69" transform="translate(415,165)"/>
<path d="M0 0 C0.66 0.33 1.32 0.66 2 1 C2 2.66666667 2 4.33333333 2 6 C-1.3 6 -4.6 6 -8 6 C-8 5.01 -8 4.02 -8 3 C-5.36 3 -2.72 3 0 3 C0 2.01 0 1.02 0 0 Z " fill="#EFEBD4" transform="translate(338,122)"/>
<path d="M0 0 C-0.33 0.66 -0.66 1.32 -1 2 C-5.29 2 -9.58 2 -14 2 C-9.35676153 -1.09549231 -5.35112092 -1.41647318 0 0 Z " fill="#4F536A" transform="translate(289,192)"/>
<path d="M0 0 C0 0.66 0 1.32 0 2 C-4.29 2 -8.58 2 -13 2 C-8.93497316 -2.06502684 -5.21168103 -0.76893655 0 0 Z " fill="#4F536E" transform="translate(254,164)"/>
<path d="M0 0 C0.66 0 1.32 0 2 0 C1.47731534 2.76276177 0.89130413 5.3260876 0 8 C-1.65 7.67 -3.3 7.34 -5 7 C-4.67 6.34 -4.34 5.68 -4 5 C-3.34 5 -2.68 5 -2 5 C-1.34 3.35 -0.68 1.7 0 0 Z " fill="#747685" transform="translate(301,158)"/>
<path d="M0 0 C1.65 0 3.3 0 5 0 C5 0.66 5 1.32 5 2 C4.34 2 3.68 2 3 2 C2.87625 3.134375 2.7525 4.26875 2.625 5.4375 C2.41875 6.613125 2.2125 7.78875 2 9 C1.01 9.495 1.01 9.495 0 10 C-0.33 9.34 -0.66 8.68 -1 8 C-1.66 7.67 -2.32 7.34 -3 7 C-2.01 6.67 -1.02 6.34 0 6 C0 4.68 0 3.36 0 2 C0 1.34 0 0.68 0 0 Z " fill="#F4E4C0" transform="translate(374,126)"/>
<path d="M0 0 C0.66 0 1.32 0 2 0 C3.60355101 3.50776784 4.22036864 6.14354879 4 10 C3.01 10 2.02 10 1 10 C0.67 6.7 0.34 3.4 0 0 Z " fill="#858697" transform="translate(394,145)"/>
<path d="M0 0 C1.62615234 0.25716797 1.62615234 0.25716797 3.28515625 0.51953125 C4.16042969 0.73996094 5.03570312 0.96039063 5.9375 1.1875 C6.2675 1.8475 6.5975 2.5075 6.9375 3.1875 C4.62440295 3.07408363 2.31199815 2.94646193 0 2.8125 C-1.93166016 2.70808594 -1.93166016 2.70808594 -3.90234375 2.6015625 C-5.46662109 2.39660156 -5.46662109 2.39660156 -7.0625 2.1875 C-7.3925 1.5275 -7.7225 0.8675 -8.0625 0.1875 C-5.17620328 -1.25564836 -3.1529949 -0.52236745 0 0 Z " fill="#FAE9C2" transform="translate(332.0625,140.8125)"/>
<path d="M0 0 C0.66 0 1.32 0 2 0 C2 0.66 2 1.32 2 2 C2.66 2.33 3.32 2.66 4 3 C2.48601545 6.78496138 1.9855604 7.0072198 -2 9 C-1.34 6.03 -0.68 3.06 0 0 Z " fill="#EABC4F" transform="translate(343,155)"/>
<path d="M0 0 C2.475 0.99 2.475 0.99 5 2 C5 3.32 5 4.64 5 6 C4.34 6 3.68 6 3 6 C3 5.34 3 4.68 3 4 C1.68 3.67 0.36 3.34 -1 3 C-0.67 2.01 -0.34 1.02 0 0 Z " fill="#E7EAEE" transform="translate(260,136)"/>
<path d="M0 0 C1.32 0.66 2.64 1.32 4 2 C3.67 2.66 3.34 3.32 3 4 C5.31 4.33 7.62 4.66 10 5 C10 5.33 10 5.66 10 6 C7.03 6 4.06 6 1 6 C1 5.01 1 4.02 1 3 C0.01 2.67 -0.98 2.34 -2 2 C-1.34 2 -0.68 2 0 2 C0 1.34 0 0.68 0 0 Z " fill="#D4D6D9" transform="translate(374,176)"/>
<path d="M0 0 C1.32 0 2.64 0 4 0 C2.84826645 2.46800047 1.95216435 4.04783565 0 6 C-0.99 6 -1.98 6 -3 6 C-2 3 -2 3 0 0 Z " fill="#50556B" transform="translate(385,174)"/>
<path d="M0 0 C0.99 0 1.98 0 3 0 C1.125 5.75 1.125 5.75 0 8 C-0.99 7.67 -1.98 7.34 -3 7 C-2.690625 6.401875 -2.38125 5.80375 -2.0625 5.1875 C-0.89790296 2.91043228 -0.89790296 2.91043228 0 0 Z " fill="#7A7A87" transform="translate(219,158)"/>
<path d="M0 0 C0.99 0 1.98 0 3 0 C2.67 3.3 2.34 6.6 2 10 C1.67 10 1.34 10 1 10 C1 8.35 1 6.7 1 5 C0.01 5 -0.98 5 -2 5 C-2 4.34 -2 3.68 -2 3 C-1.01 3 -0.02 3 1 3 C0.67 2.01 0.34 1.02 0 0 Z " fill="#F8F2D9" transform="translate(340,152)"/>
<path d="M0 0 C0.33 0.66 0.66 1.32 1 2 C0.67 2.66 0.34 3.32 0 4 C-0.66 4 -1.32 4 -2 4 C-2.12375 4.804375 -2.2475 5.60875 -2.375 6.4375 C-2.58125 7.283125 -2.7875 8.12875 -3 9 C-3.99 9.495 -3.99 9.495 -5 10 C-5.3125 7.25 -5.3125 7.25 -5 4 C-2.5 1.625 -2.5 1.625 0 0 Z " fill="#4D506C" transform="translate(166,138)"/>
<path d="M0 0 C-1.4375 1.5625 -1.4375 1.5625 -4 3 C-7.05380927 2.96846324 -9.99653222 2.53266629 -13 2 C-8.93497316 -2.06502684 -5.21168103 -0.76893655 0 0 Z " fill="#E6EAE7" transform="translate(136,166)"/>
<path d="M0 0 C0.66 0 1.32 0 2 0 C2 0.66 2 1.32 2 2 C2.99 2 3.98 2 5 2 C5 2.66 5 3.32 5 4 C4.01 4 3.02 4 2 4 C1.67 4.99 1.34 5.98 1 7 C0.34 7 -0.32 7 -1 7 C-1.04254356 5.00045254 -1.04080783 2.99958364 -1 1 C-0.67 0.67 -0.34 0.34 0 0 Z " fill="#FDB323" transform="translate(346,150)"/>
<path d="M0 0 C0.33 0.66 0.66 1.32 1 2 C2.2375 2.495 2.2375 2.495 3.5 3 C6 4 6 4 7 6 C4.69 6 2.38 6 0 6 C0 4.02 0 2.04 0 0 Z " fill="#F7F6FB" transform="translate(286,142)"/>
<path d="M0 0 C3.96 0 7.92 0 12 0 C9.0278901 1.9814066 7.50610679 2.7434556 4 3 C2.68 2.01 1.36 1.02 0 0 Z " fill="#565968" transform="translate(196,133)"/>
<path d="M0 0 C0.99 0 1.98 0 3 0 C2.67 1.98 2.34 3.96 2 6 C1.01 6 0.02 6 -1 6 C-1.042721 4.33388095 -1.04063832 2.66617115 -1 1 C-0.67 0.67 -0.34 0.34 0 0 Z " fill="#ECB539" transform="translate(354,157)"/>
<path d="M0 0 C0.66 0.33 1.32 0.66 2 1 C2 2.98 2 4.96 2 7 C0.68 6.34 -0.64 5.68 -2 5 C-2.33 6.32 -2.66 7.64 -3 9 C-3 7.35 -3 5.7 -3 4 C-2.34 3.67 -1.68 3.34 -1 3 C-0.67 2.01 -0.34 1.02 0 0 Z " fill="#F8C652" transform="translate(360,151)"/>
<path d="M0 0 C1.98 0.495 1.98 0.495 4 1 C3.34 2.65 2.68 4.3 2 6 C1.01 5.67 0.02 5.34 -1 5 C-0.67 3.35 -0.34 1.7 0 0 Z " fill="#F8B823" transform="translate(341,131)"/>
<path d="M0 0 C-0.66 1.32 -1.32 2.64 -2 4 C-4.64 3.67 -7.28 3.34 -10 3 C-6.88378718 -0.11621282 -4.21175599 -0.11383124 0 0 Z " fill="#F3BE42" transform="translate(376,128)"/>
<path d="M0 0 C0 1.65 0 3.3 0 5 C-0.99 5.495 -0.99 5.495 -2 6 C-2.99 5.67 -3.98 5.34 -5 5 C-5 4.01 -5 3.02 -5 2 C-1.125 0 -1.125 0 0 0 Z " fill="#434963" transform="translate(417,183)"/>
<path d="M0 0 C0.66 0.33 1.32 0.66 2 1 C2.59355614 3.64860427 2.74209269 6.29197322 3 9 C2.67 8.01 2.34 7.02 2 6 C0.68 6.33 -0.64 6.66 -2 7 C-1.34 4.69 -0.68 2.38 0 0 Z " fill="#EEC04E" transform="translate(354,115)"/>
<path d="M0 0 C2.97 0 5.94 0 9 0 C8.67 0.99 8.34 1.98 8 3 C5.36 2.67 2.72 2.34 0 2 C0 1.34 0 0.68 0 0 Z " fill="#DADADF" transform="translate(268,195)"/>
<path d="M0 0 C-0.99 0.495 -0.99 0.495 -2 1 C-2 1.66 -2 2.32 -2 3 C-4.64 2.67 -7.28 2.34 -10 2 C-6.5980513 -0.09350689 -3.94727588 -0.17942163 0 0 Z " fill="#454B63" transform="translate(311,187)"/>
<path d="M0 0 C0.66 0.33 1.32 0.66 2 1 C2 3.97 2 6.94 2 10 C1.67 10 1.34 10 1 10 C1 8.02 1 6.04 1 4 C-0.32 4.33 -1.64 4.66 -3 5 C-3 3 -3 3 -1.5 1.375 C-1.005 0.92125 -0.51 0.4675 0 0 Z " fill="#CDCFDA" transform="translate(183,153)"/>
<path d="M0 0 C3.68754757 0.49831724 5.60490662 1.10067643 8 4 C6.02 4.33 4.04 4.66 2 5 C2 4.01 2 3.02 2 2 C1.34 2 0.68 2 0 2 C0 1.34 0 0.68 0 0 Z " fill="#F6EECA" transform="translate(328,150)"/>
<path d="M0 0 C1.2065625 0.0309375 1.2065625 0.0309375 2.4375 0.0625 C2.4375 1.0525 2.4375 2.0425 2.4375 3.0625 C1.4475 3.0625 0.4575 3.0625 -0.5625 3.0625 C-2.24486471 3.68849617 -3.9148962 4.35002268 -5.5625 5.0625 C-3.15007962 0.07683121 -3.15007962 0.07683121 0 0 Z " fill="#F5C45C" transform="translate(341.5625,143.9375)"/>
<path d="M0 0 C0.66 0 1.32 0 2 0 C2 1.32 2 2.64 2 4 C2.66 4 3.32 4 4 4 C3.34 5.32 2.68 6.64 2 8 C0.23537317 4.91190305 0 3.76687864 0 0 Z " fill="#F9F4E9" transform="translate(361,140)"/>
<path d="M0 0 C0.33 2.64 0.66 5.28 1 8 C-0.98 6.68 -2.96 5.36 -5 4 C-1.125 0 -1.125 0 0 0 Z " fill="#F0C067" transform="translate(367,155)"/>
<path d="M0 0 C0.66 0 1.32 0 2 0 C1.67 1.98 1.34 3.96 1 6 C0.67 5.01 0.34 4.02 0 3 C-2.64 3 -5.28 3 -8 3 C-8 2.67 -8 2.34 -8 2 C-6.865625 1.855625 -5.73125 1.71125 -4.5625 1.5625 C-1.19222799 1.38828522 -1.19222799 1.38828522 0 0 Z " fill="#707387" transform="translate(100,146)"/>
<path d="M0 0 C1.5625 1.0625 1.5625 1.0625 3 3 C2.6875 6.6875 2.6875 6.6875 2 10 C0 8 0 8 -0.1953125 6.0546875 C-0.13020833 4.03645833 -0.06510417 2.01822917 0 0 Z " fill="#74798A" transform="translate(104,136)"/>
<path d="M0 0 C0.99 0.66 1.98 1.32 3 2 C3 2.99 3 3.98 3 5 C1.35 4.67 -0.3 4.34 -2 4 C-1.34 2.68 -0.68 1.36 0 0 Z " fill="#E9ECEC" transform="translate(74,135)"/>
<path d="M0 0 C2.31 0 4.62 0 7 0 C6.34 1.32 5.68 2.64 5 4 C2 3 2 3 0 2 C0 1.34 0 0.68 0 0 Z " fill="#F6F7FB" transform="translate(67,135)"/>
<path d="M0 0 C2.475 0.495 2.475 0.495 5 1 C5 2.32 5 3.64 5 5 C4.34 5 3.68 5 3 5 C2.67 5.66 2.34 6.32 2 7 C2.33 5.35 2.66 3.7 3 2 C2.01 2 1.02 2 0 2 C0 1.34 0 0.68 0 0 Z " fill="#F0FBEF" transform="translate(349,132)"/>
<path d="M0 0 C3.96 0 7.92 0 12 0 C10.02 0.99 10.02 0.99 8 2 C7.34 1.67 6.68 1.34 6 1 C6 1.66 6 2.32 6 3 C4.02 2.34 2.04 1.68 0 1 C0 0.67 0 0.34 0 0 Z " fill="#585A69" transform="translate(116,133)"/>
<path d="M0 0 C0.98120464 3.05263664 0.98120464 4.94736336 0 8 C-0.99 7.67 -1.98 7.34 -3 7 C-2.38722388 4.03824877 -1.74627478 2.61941217 0 0 Z " fill="#EFD99A" transform="translate(356,160)"/>
<path d="M0 0 C0.99 0 1.98 0 3 0 C2.67 1.65 2.34 3.3 2 5 C1.01 5 0.02 5 -1 5 C-0.67 3.35 -0.34 1.7 0 0 Z " fill="#65657C" transform="translate(395,157)"/>
<path d="M0 0 C0.33 0 0.66 0 1 0 C1.33 3.63 1.66 7.26 2 11 C1.01 11.33 0.02 11.66 -1 12 C-0.67 8.04 -0.34 4.08 0 0 Z " fill="#454A6B" transform="translate(138,136)"/>
<path d="M0 0 C0.66 0.33 1.32 0.66 2 1 C2 2.65 2 4.3 2 6 C1.01 6 0.02 6 -1 6 C-1.042721 4.33388095 -1.04063832 2.66617115 -1 1 C-0.67 0.67 -0.34 0.34 0 0 Z " fill="#4A5064" transform="translate(153,140)"/>
<path d="M0 0 C3 3 3 3 3.1875 6.1875 C3.0946875 7.5796875 3.0946875 7.5796875 3 9 C2.34 9 1.68 9 1 9 C0.67 6.03 0.34 3.06 0 0 Z " fill="#494E69" transform="translate(102,135)"/>
<path d="M0 0 C1.32 0 2.64 0 4 0 C3.67 1.32 3.34 2.64 3 4 C2.34 4 1.68 4 1 4 C0.67 4.66 0.34 5.32 0 6 C0 4.02 0 2.04 0 0 Z " fill="#CBCBD3" transform="translate(188,135)"/>
<path d="M0 0 C2.875 -0.125 2.875 -0.125 6 0 C6.66 0.66 7.32 1.32 8 2 C7.67 2.99 7.34 3.98 7 5 C3.535 3.02 3.535 3.02 0 1 C0 0.67 0 0.34 0 0 Z " fill="#DCDFE7" transform="translate(99,133)"/>
<path d="M0 0 C2 0 4 0 6 0 C6 1.65 6 3.3 6 5 C2.83884224 3.63016497 2.0072908 3.0109362 0 0 Z " fill="#F7E2B8" transform="translate(346,121)"/>
</svg>
